/* XPM */
static char * im4_xpm[] = {
"64 64 48 1",
" 	c #FFFFFF",
".	c #F0F0F0",
"+	c #E1E1E1",
"@	c #A5A5A5",
"#	c #787878",
"$	c #BCBCBC",
"%	c #000000",
"&	c #898989",
"*	c #696969",
"=	c #C6C6C6",
"-	c #474747",
";	c #919191",
">	c #AEAEAE",
",	c #7F7F7F",
"'	c #313131",
")	c #3D3D3D",
"!	c #BABABA",
"~	c #565656",
"{	c #999999",
"]	c #636363",
"^	c #434343",
"/	c #2F2F2F",
"(	c #797979",
"_	c #363636",
":	c #BDBDBD",
"<	c #5B5B5B",
"[	c #1A1A1A",
"}	c #111111",
"|	c #838383",
"1	c #2E2E2E",
"2	c #4E4E4E",
"3	c #494949",
"4	c #1E1E1E",
"5	c #010101",
"6	c #030303",
"7	c #C2C2C2",
"8	c #7C7C7C",
"9	c #2B2B2B",
"0	c #060606",
"a	c #181818",
"b	c #F4F4F4",
"c	c #9D9D9D",
"d	c #707070",
"e	c #323232",
"f	c #3A3A3A",
"g	c #222222",
"h	c #2A2A2A",
"i	c #353535",
"                                                                ",
"                                                                ",
"                                                                ",
"                                                                ",
"                                                                ",
"                                                                ",
"                                                                ",
"                                                                ",
"                                                                ",
"                                                                ",
"                                                                ",
"                                                                ",
"                                                                ",
"                  .++.                                          ",
"                  @##+                                          ",
"                 $#%#+                                          ",
"                +&%*@.                                          ",
"                =--;                                            ",
"                >-->                                            ",
"                >-->                                            ",
"                >-->                                            ",
"                >-->                                            ",
"                >-->                                            ",
"                >-->                                            ",
"                >-->                                            ",
"                >-->                                            ",
"                >-->                                            ",
"                >-->                                            ",
"                ,''>                                            ",
"               +*%)=                                            ",
"               @)'#+                                            ",
"              +#%#+                                             ",
"              @--@          .++.                                ",
"             $#%&+          +@@+                                ",
"            +&%#$           =##=                                ",
"            =--;            !~~!                                ",
"            >-->            >-->                                ",
"            >--{=>>=+       >-->                                ",
"            =]-*---]$       >^/($                               ",
"            +$&%--_-#:>>>>>><[}%$                               ",
"              $@;>|123------456<$                               ",
"                  7893------40a&                                ",
"                  b$@c>>>>>>def>                                ",
"                            >-->                                ",
"                            >-->                                ",
"                            >-->                                ",
"                            >-->                                ",
"                            >-->                                ",
"                            >-->                                ",
"                            >-->                                ",
"                            >-->                                ",
"                            >'g<$                               ",
"                            >'%%&$                              ",
"                            =-hi%@                              ",
"                            +$;)-;                              ",
"                              =]]=                              ",
"                              +$$+                              ",
"                                                                ",
"                                                                ",
"                                                                ",
"                                                                ",
"                                                                ",
"                                                                ",
"                                                                "};
