/* XPM */
static char * im1_xpm[] = {
"64 64 60 1",
" 	c #FFFFFF",
".	c #A5A5A5",
"+	c #898989",
"@	c #E1E1E1",
"#	c #F4F4F4",
"$	c #B3B3B3",
"%	c #646464",
"&	c #000000",
"*	c #474747",
"=	c #C6C6C6",
"-	c #C2C2C2",
";	c #8E8E8E",
">	c #616161",
",	c #222222",
"'	c #313131",
")	c #AEAEAE",
"!	c #CBCBCB",
"~	c #959595",
"{	c #2B2B2B",
"]	c #5B5B5B",
"^	c #292929",
"/	c #444444",
"(	c #878787",
"_	c #E9E9E9",
":	c #BCBCBC",
"<	c #838383",
"[	c #A6A6A6",
"}	c #727272",
"|	c #121212",
"1	c #373737",
"2	c #BDBDBD",
"3	c #434343",
"4	c #363636",
"5	c #787878",
"6	c #D7D7D7",
"7	c #6C6C6C",
"8	c #828282",
"9	c #9D9D9D",
"0	c #999999",
"a	c #2D2D2D",
"b	c #353535",
"c	c #7F7F7F",
"d	c #161616",
"e	c #919191",
"f	c #3D3D3D",
"g	c #696969",
"h	c #565656",
"i	c #636363",
"j	c #4B4B4B",
"k	c #868686",
"l	c #757575",
"m	c #F0F0F0",
"n	c #949494",
"o	c #555555",
"p	c #1D1D1D",
"q	c #303030",
"r	c #B2B2B2",
"s	c #212121",
"t	c #2E2E2E",
"u	c #767676",
"                                                                ",
"                                                                ",
"                                                                ",
"                                                                ",
"                                                                ",
"                                                                ",
"                                                                ",
"                                                                ",
"                                                                ",
"                                   .++@                         ",
"                                 #$%&*=                         ",
"                               #-;>&,')                         ",
"                              !~>{{]'*)                         ",
"                             !+{^>~+**)                         ",
"                            #~{/(-#)**)                         ",
"                            $>^;_  )**)                         ",
"                           :<&+!   )**)                         ",
"                          :+&+:    )**)                         ",
"                         :+&+:     )**)                         ",
"                        :+&+:      +''[                         ",
"                       :+&+:      @}|12                         ",
"                      :+&+:      #.3456                         ",
"                     :+&+:       67{8@                          ",
"                    @+&5:        2**9                           ",
"                   @0abc         )**)                           ",
"                  :+bd,e         )**)                           ",
"                 :+&f'*.         )**)                           ",
"                :+&5e)=@         )**)                           ",
"             @=cg&+:             )**)                           ",
"           @:+h'&i:              )**)                           ",
"           =i*j'*+               )**)                           ",
"          @kaal)=@               )**)                           ",
"        #$<bd,e                  )**)                           ",
"    m@=n}o&f'*.                  )**)                           ",
"    @.5f|p5e)=@                  )**)                           ",
"    @.5fq7!                      )**)                           ",
"    m@=r26                       +''[                           ",
"                                @}|12                           ",
"                               #.3456                           ",
"                               67{8@                            ",
"                               2**9                             ",
"                               )**)                             ",
"                               )**)                             ",
"                               )**)                             ",
"                               )**)                             ",
"                               )**)                             ",
"                               )**)                             ",
"                               [33)                             ",
"                              !is')                             ",
"                              :t|*=                             ",
"                              :u7~@                             ",
"                              ###                               ",
"                                                                ",
"                                                                ",
"                                                                ",
"                                                                ",
"                                                                ",
"                                                                ",
"                                                                ",
"                                                                ",
"                                                                ",
"                                                                ",
"                                                                ",
"                                                                "};
