/* XPM */
static char * im6_xpm[] = {
"64 64 65 1",
" 	c #FFFFFF",
".	c #E1E1E1",
"+	c #B3B3B3",
"@	c #7F7F7F",
"#	c #A1A1A1",
"$	c #E7E7E7",
"%	c #CBCBCB",
"&	c #959595",
"*	c #4D4D4D",
"=	c #252525",
"-	c #202020",
";	c #6C6C6C",
">	c #F4F4F4",
",	c #E9E9E9",
"'	c #CDCDCD",
")	c #969696",
"!	c #828282",
"~	c #363636",
"{	c #474747",
"]	c #4E4E4E",
"^	c #555555",
"/	c #838383",
"(	c #C2C2C2",
"_	c #8E8E8E",
":	c #616161",
"<	c #595959",
"[	c #3D3D3D",
"}	c #1D1D1D",
"|	c #9D9D9D",
"1	c #C9C9C9",
"2	c #DFDFDF",
"3	c #F9F9F9",
"4	c #2B2B2B",
"5	c #D7D7D7",
"6	c #A5A5A5",
"7	c #787878",
"8	c #757575",
"9	c #8D8D8D",
"0	c #AAAAAA",
"a	c #000000",
"b	c #BCBCBC",
"c	c #898989",
"d	c #636363",
"e	c #5D5D5D",
"f	c #C6C6C6",
"g	c #2E2E2E",
"h	c #7D7D7D",
"i	c #292929",
"j	c #434343",
"k	c #C4C4C4",
"l	c #565656",
"m	c #919191",
"n	c #878787",
"o	c #626262",
"p	c #3E3E3E",
"q	c #3B3B3B",
"r	c #5E5E5E",
"s	c #A3A3A3",
"t	c #BDBDBD",
"u	c #AEAEAE",
"v	c #9E9E9E",
"w	c #313131",
"x	c #676767",
"y	c #707070",
"z	c #7C7C7C",
"                                                                ",
"                                                                ",
"                                                                ",
"                                                                ",
"                                                                ",
"                                                                ",
"                                                                ",
"                                                                ",
"                                                                ",
"                                                                ",
"                                                                ",
"                                      .+@@#$                    ",
"                                     %&*=-;.                    ",
"                                >,')!;~{]^/.                    ",
"                              >(_:<[}{/|12,3                    ",
"                             %&:444[</5>                        ",
"                           .6744:8905>                          ",
"                         .67{a:_(>                              ",
"                        %&*a{/+>                                ",
"                      >+/4{76.                                  ",
"                     .6;a;6.                                    ",
"                    %&*4/+>                                     ",
"                   bc4*&%                                       ",
"                 >+/a;6.                                        ",
"               .+!:a/+>                                         ",
"               bd44cb                                           ",
"              %c{e&%                                            ",
"             f!gh'>                                             ",
"            %!ij)k5.                                            ",
"          >(/=jd;<lmf.                                          ",
"          bn4o|6p4{{*88&b                                       ",
"        f67q/+,%#9!l{44acb                                      ",
"        6{*+%     .fm;<rac%                                     ",
"       .7{7.        >,,s<4#                                     ",
"       +llt            2<4@                                     ",
"       94<'            2<4@                                     ",
"      >84:,            2<4@                                     ",
"      5:4!>            2<4@                                     ",
"      t{{|             2<4@                                     ",
"      u{jv,>           ,<48                                     ",
"      f*wjx6.          +da&                                     ",
"      .&4-i*8@@@@@@@@@@8acb                                     ",
"       %&8y*444444444444cb                                      ",
"          .6;<<<<<<<<<<zb                                       ",
"           >,2222222222,>                                       ",
"                                                                ",
"                                                                ",
"                                                                ",
"                                                                ",
"                                                                ",
"                                                                ",
"                                                                ",
"                                                                ",
"                                                                ",
"                                                                ",
"                                                                ",
"                                                                ",
"                                                                ",
"                                                                ",
"                                                                ",
"                                                                ",
"                                                                ",
"                                                                ",
"                                                                "};
