/* XPM */
static char * exit_open_xpm[] = {
"64 64 140 2",
"  	c #0C1317",
". 	c #723E2B",
"+ 	c #C66C47",
"@ 	c #E17B50",
"# 	c #38211C",
"$ 	c #673928",
"% 	c #77412D",
"& 	c #77412C",
"* 	c #733F2B",
"= 	c #995337",
"- 	c #CE7049",
"; 	c #643727",
"> 	c #AE5F3E",
", 	c #C86D47",
"' 	c #C76D47",
") 	c #C66C46",
"! 	c #C56C46",
"~ 	c #CD7049",
"{ 	c #DB774E",
"] 	c #683928",
"^ 	c #76402C",
"/ 	c #743F2C",
"( 	c #9B5438",
"_ 	c #D0714A",
": 	c #E27C51",
"< 	c #AF5F3F",
"[ 	c #C96E48",
"} 	c #DC784E",
"| 	c #301E1B",
"1 	c #633627",
"2 	c #9B5538",
"3 	c #D0724A",
"4 	c #DE784D",
"5 	c #D77145",
"6 	c #D36D40",
"7 	c #D36D41",
"8 	c #DD794F",
"9 	c #E37D52",
"0 	c #E37D53",
"a 	c #D87146",
"b 	c #C15A2C",
"c 	c #B54E1F",
"d 	c #B64F20",
"e 	c #D46D41",
"f 	c #D46E42",
"g 	c #C86235",
"h 	c #B14B1B",
"i 	c #A63F0E",
"j 	c #A63F0F",
"k 	c #A74010",
"l 	c #B54F20",
"m 	c #B24B1C",
"n 	c #AB4414",
"o 	c #A84111",
"p 	c #A94111",
"q 	c #AA4211",
"r 	c #AB4211",
"s 	c #AC4211",
"t 	c #DF794E",
"u 	c #D87246",
"v 	c #B14A1B",
"w 	c #A13F11",
"x 	c #8C3912",
"y 	c #813612",
"z 	c #823612",
"A 	c #AA4313",
"B 	c #AE4311",
"C 	c #AF4311",
"D 	c #8E3912",
"E 	c #4F2714",
"F 	c #2F1D16",
"G 	c #301E16",
"H 	c #321E16",
"I 	c #833612",
"J 	c #853712",
"K 	c #652D14",
"L 	c #261B16",
"M 	c #051117",
"N 	c #071117",
"O 	c #081217",
"P 	c #311E16",
"Q 	c #281B16",
"R 	c #131517",
"S 	c #091217",
"T 	c #0A1217",
"U 	c #A33F11",
"V 	c #8F3A12",
"W 	c #642D14",
"X 	c #251A16",
"Y 	c #061117",
"Z 	c #0B1317",
"` 	c #502714",
" .	c #121517",
"..	c #9C5539",
"+.	c #CF714A",
"@.	c #D1724B",
"#.	c #DE7A50",
"$.	c #C15A2D",
"%.	c #111517",
"&.	c #79422E",
"*.	c #7A432E",
"=.	c #C15B2D",
"-.	c #77422E",
";.	c #C96F49",
">.	c #D46E41",
",.	c #76412E",
"'.	c #C96F4A",
").	c #B64F21",
"!.	c #39221D",
"~.	c #653828",
"{.	c #975033",
"].	c #C4653E",
"^.	c #C96235",
"/.	c #B34C1D",
"(.	c #693A2A",
"_.	c #B06040",
":.	c #C5663D",
"<.	c #BB5629",
"[.	c #79432F",
"}.	c #CA6F49",
"|.	c #78432E",
"1.	c #C86E48",
"2.	c #B65021",
"3.	c #78422F",
"4.	c #B75021",
"5.	c #78432F",
"6.	c #D56E42",
"7.	c #A7400F",
"8.	c #703B27",
"9.	c #BB613A",
"0.	c #C96336",
"a.	c #5F2B1A",
"b.	c #A0451F",
"c.	c #AB4515",
"d.	c #562315",
"e.	c #933811",
"f.	c #562316",
"g.	c #933812",
"h.	c #572416",
"i.	c #943913",
"                                                  . + @ @ @ @ @ @ @ @ @ @ + .                                                   ",
"                                      # $ % & * . = - @ @ @ @ @ @ @ @ @ @ - = . * & % $ #                                       ",
"                                      ; > , ' ) ! ~ { @ @ @ @ @ @ @ @ @ @ { ~ ! ) ' , > ;                                       ",
"                              # ] ^ / ( _ @ @ @ : : : : : : : : : : : : : : : : @ @ @ _ ( / ^ ] #                               ",
"                              ; < [ , - } @ @ @ : : : : : : : : : : : : : : : : @ @ @ } - , [ < ;                               ",
"                          | 1 2 3 @ @ @ : : : 4 5 6 7 7 7 7 7 7 7 7 7 7 7 7 6 5 4 : : : @ @ @ 3 2 1 |                           ",
"                          1 < 3 8 @ @ @ : 9 0 a b c c d d d d d d d d d d c c b a 0 9 : @ @ @ 8 3 < 1                           ",
"                      | 1 2 3 @ : : : 4 5 e f g h i j k k k k k k k k k k j i h g f e 5 4 : : : @ 3 2 1 |                       ",
"                      1 < 3 8 @ : 9 0 a b c l m n k k k k k k k k k k k k k k n m l c b a 0 9 : @ 8 3 < 1                       ",
"                  | 1 2 3 @ : 4 5 e f g h i j k o p q q q q q q q q q q q q p o k j i h g f e 5 4 : @ 3 2 1 |                   ",
"                  1 < 3 8 : 9 a b c l m n k k k o p r s s s s s s s s s s r p o k k k n m l c b a 9 : 8 3 < 1                   ",
"              | 1 2 3 @ : t u g v i j k o p q r r w x y z z z z z z z z y x w r r q p o k j i v g u t : @ 3 2 1 |               ",
"              1 < 3 8 : 9 u b v A k k k o p r B C D E F G H H H H H H G F E D C B r p o k k k A v b u 9 : 8 3 < 1               ",
"          # ; 2 3 @ : t u g v j k o o p r w x I J K L M N O O O O O O N M L K J I x w r p o o k j v g u t : @ 3 2 ; #           ",
"          ] < 3 8 : 9 u b v A k o o o r B D E F P Q R S S T T T T T T S S R Q P F E D B r o o o k A v b u 9 : 8 3 < ]           ",
"          ^ [ @ : t u g v j k o o p r U V W X M Y S Z                     Z S Y M X W V U r p o o k j v g u t : @ [ ^           ",
"          / , : 9 u b v A k o o o r B V ` X  .S S T Z                     Z T S S  .X ` V B r o o o k A v b u 9 : , /           ",
"      # ; ..+.t u g v j k o o p r U V W X Y S                                     S Y X W V U r p o o k j v g u t +...; #       ",
"      ] < @.#.u $.v A k o o o r B V ` X %.S Z                                     Z S %.X ` V B r o o o k A v $.u #.@.< ]       ",
"      &.[ 4 u g v j k o o p r U V W X Y S                                             S Y X W V U r p o o k j v g u 4 [ &.      ",
"      *.[ 5 =.v A k o o o r B V ` X %.S Z                                             Z S %.X ` V B r o o o k A v =.5 [ *.      ",
"      -.;.>.d i k o o p r U V W X Y S                                                     S Y X W V U r p o o k i d >.;.-.      ",
"      ,.'.f ).j k o o r B V ` X %.S Z                                                     Z S %.X ` V B r o o k j ).f '.,.      ",
"  !.~.{.].^./.k k p p w D W X Y S                                                             S Y X W D w p p k k /.^.].{.~.!.  ",
"  (._.:.<.m n o o q r x E X  .S Z                                                             Z S  .X E x r q o o n m <.:._.(.  ",
"  [.}.7 d i k o o r B I F M S                                                                     S M F I B r o o k i d 7 }.[.  ",
"  |.;.e d j k o o r C J P Y S                                                                     S Y P J C r o o k j d e ;.|.  ",
"  -.1.e 2.k k p p w D K Q S T                                                                     T S Q K D w p p k k 2.e 1.-.  ",
"  -.1.e 2.k k q r x E L R Z Z                                                                     Z Z R L E x r q k k 2.e 1.-.  ",
"  -.1.e 2.k k q s y F M S                                                                             S M F y s q k k 2.e 1.-.  ",
"  -.1.e 2.k k q s z G N S                                                                             S N G z s q k k 2.e 1.-.  ",
"  3.;.f 4.k k q s z H O T                                                                             T O H z s q k k 4.f ;.3.  ",
"  5.;.6.4.7.k q s z H O T                                                                             T O H z s q k 7.4.6.;.5.  ",
"  8.9.0./.k k q s z H O T                                                                             T O H z s q k k /.0.9.8.  ",
"  a.b./.c.o o q s z H O T                                                                             T O H z s q o o c./.b.a.  ",
"  d.e.k o o o q s z H O T                                                                             T O H z s q o o o k e.d.  ",
"  f.g.k o o o q s z H O T                                                                             T O H z s q o o o k g.f.  ",
"  h.i.o o o o q s z H O T                                                                             T O H z s q o o o o i.h.  ",
"  h.i.o o o o q s z H O T                                                                             T O H z s q o o o o i.h.  ",
"  h.i.o o o o q s z H O T                                                                             T O H z s q o o o o i.h.  ",
"  h.i.o o o o q s z H O T                                                                             T O H z s q o o o o i.h.  ",
"  h.i.o o o o q s z H O T                                                                             T O H z s q o o o o i.h.  ",
"  h.i.o o o o q s z H O T                                                                             T O H z s q o o o o i.h.  ",
"  h.i.o o o o q s z H O T                                                                             T O H z s q o o o o i.h.  ",
"  h.i.o o o o q s z H O T                                                                             T O H z s q o o o o i.h.  ",
"  h.i.o o o o q s z H O T                                                                             T O H z s q o o o o i.h.  ",
"  h.i.o o o o q s z H O T                                                                             T O H z s q o o o o i.h.  ",
"  h.i.o o o o q s z H O T                                                                             T O H z s q o o o o i.h.  ",
"  h.i.o o o o q s z H O T                                                                             T O H z s q o o o o i.h.  ",
"  h.i.o o o o q s z H O T                                                                             T O H z s q o o o o i.h.  ",
"  h.i.o o o o q s z H O T                                                                             T O H z s q o o o o i.h.  ",
"  h.i.o o o o q s z H O T                                                                             T O H z s q o o o o i.h.  ",
"  h.i.o o o o q s z H O T                                                                             T O H z s q o o o o i.h.  ",
"  h.i.o o o o q s z H O T                                                                             T O H z s q o o o o i.h.  ",
"  h.i.o o o o q s z H O T                                                                             T O H z s q o o o o i.h.  ",
"  h.i.o o o o q s z H O T                                                                             T O H z s q o o o o i.h.  ",
"  h.i.o o o o q s z H O T                                                                             T O H z s q o o o o i.h.  ",
"  h.i.o o o o q s z H O T                                                                             T O H z s q o o o o i.h.  ",
"  h.i.o o o o q s z H O T                                                                             T O H z s q o o o o i.h.  ",
"  h.i.o o o o q s z H O T                                                                             T O H z s q o o o o i.h.  ",
"  h.i.o o o o q s z H O T                                                                             T O H z s q o o o o i.h.  ",
"  h.i.o o o o q s z H O T                                                                             T O H z s q o o o o i.h.  ",
"  h.i.o o o o q s z H O T                                                                             T O H z s q o o o o i.h.  ",
"  h.i.o o o o q s z H O T                                                                             T O H z s q o o o o i.h.  "};
