/* XPM */
static char * key32_xpm[] = {
"32 32 4 1",
" 	c #0C1317",
".	c #FAFA82",
"+	c #E17B50",
"@	c #17394A",
"                                ",
"                                ",
"                                ",
"                                ",
"                                ",
"                                ",
"                                ",
"                                ",
"                                ",
"                                ",
"          ..                    ",
"         ....                   ",
"        ..  ..                  ",
"        ..  ..                  ",
"        ..  ..+..+........      ",
"        ..  ..+..++++..+.+      ",
"        ..@ .. @     . ..       ",
"        ..@ ..@      . ..       ",
"         .... @        ..       ",
"         @.. @    @             ",
"         @ @ @   @              ",
"         @ @ @   @              ",
"           @                    ",
"                                ",
"                                ",
"                                ",
"                                ",
"                                ",
"                                ",
"                                ",
"                                ",
"                                "};
