/* XPM */
static char * im2_xpm[] = {
"64 64 72 1",
" 	c #FFFFFF",
".	c #E1E1E1",
"+	c #C6C6C6",
"@	c #AEAEAE",
"#	c #BCBCBC",
"$	c #898989",
"%	c #474747",
"&	c #636363",
"*	c #000000",
"=	c #787878",
"-	c #919191",
";	c #999999",
">	c #696969",
",	c #A5A5A5",
"'	c #CBCBCB",
")	c #838383",
"!	c #F4F4F4",
"~	c #959595",
"{	c #2B2B2B",
"]	c #616161",
"^	c #B3B3B3",
"/	c #565656",
"(	c #4D4D4D",
"_	c #8E8E8E",
":	c #6C6C6C",
"<	c #C2C2C2",
"[	c #AAAAAA",
"}	c #595959",
"|	c #424242",
"1	c #3D3D3D",
"2	c #F0F0F0",
"3	c #BDBDBD",
"4	c #9D9D9D",
"5	c #313131",
"6	c #A6A6A6",
"7	c #727272",
"8	c #121212",
"9	c #373737",
"0	c #434343",
"a	c #363636",
"b	c #D7D7D7",
"c	c #828282",
"d	c #E9E9E9",
"e	c #6D6D6D",
"f	c #111111",
"g	c #303030",
"h	c #3B3B3B",
"i	c #1D1D1D",
"j	c #292929",
"k	c #252525",
"l	c #212121",
"m	c #2E2E2E",
"n	c #B4B4B4",
"o	c #555555",
"p	c #CDCDCD",
"q	c #676767",
"r	c #525252",
"s	c #1B1B1B",
"t	c #454545",
"u	c #191919",
"v	c #050505",
"w	c #040404",
"x	c #2D2D2D",
"y	c #868686",
"z	c #0D0D0D",
"A	c #030303",
"B	c #0F0F0F",
"C	c #222222",
"D	c #0A0A0A",
"E	c #161616",
"F	c #323232",
"G	c #3A3A3A",
"                                                                ",
"                                                                ",
"                                                                ",
"                                                                ",
"                                                                ",
"                                                                ",
"                                                                ",
"                         .+@@@@+.                               ",
"                        #$%%%%%&#                               ",
"                       #$*%%%%%%$#                              ",
"                      #$*=-@@@;>*,                              ",
"                     #$*$#    +%%-                              ",
"                    '$*)#     @%%@                              ",
"                   !~{]^      @%%@                              ",
"                   ^]{~!      +/%-.                             ",
"                  #)*$'       .,(/,!                            ",
"                 #$*$#         ._{:<                            ",
"                .$*=#           [}{[                            ",
"                .|1>2           3%%4                            ",
"                .=*>.           @%%@                            ",
"                 ,==.           @%%@                            ",
"                 2..2           @%%@                            ",
"                                @%%@                            ",
"                                @%%@                            ",
"                                @%%@                            ",
"                                @%%@                            ",
"                                $556                            ",
"                               .7893                            ",
"                              !,0a=b                            ",
"                              b:{c.                             ",
"                              3%%4                              ",
"                              @%%@                              ",
"                              $556                              ",
"                             defg3                              ",
"                            '_hi:b                              ",
"                           .$jk$'                               ",
"                           45le'                                ",
"                          !7fmn                                 ",
"                          ^oi:b                                 ",
"                         ')*)'                                  ",
"                        .~{:^                                   ",
"                       !,((,!                                   ",
"                       pqjc.                                    ",
"                     .4rs54                                     ",
"                  .@]tuvwxy@@@@@@@@@@@@@@@@@;;@.                ",
"                  #%z*AvBk1%%%%%%%%%%%%%%%%%5C%#                ",
"                  #%zDEFG%%%%%%%%%%%%%%%%%%%5C%#                ",
"                  .@yy;@@@@@@@@@@@@@@@@@@@@@;;@.                ",
"                                                                ",
"                                                                ",
"                                                                ",
"                                                                ",
"                                                                ",
"                                                                ",
"                                                                ",
"                                                                ",
"                                                                ",
"                                                                ",
"                                                                ",
"                                                                ",
"                                                                ",
"                                                                ",
"                                                                ",
"                                                                "};
