/* XPM */
static char * key01_xpm[] = {
"64 64 226 2",
"  	c #0C1317",
". 	c #3E4025",
"+ 	c #74753D",
"@ 	c #878847",
"# 	c #70703B",
"$ 	c #C3C365",
"% 	c #E1E175",
"& 	c #363822",
"* 	c #6E6F3B",
"= 	c #AEAE5A",
"- 	c #E9E979",
"; 	c #FAFA82",
"> 	c #C2C365",
", 	c #E8E879",
"' 	c #F8F881",
") 	c #F7F781",
"! 	c #E7E778",
"~ 	c #DCDC72",
"{ 	c #ACAD5A",
"] 	c #7D7E42",
"^ 	c #868746",
"/ 	c #E0E074",
"( 	c #DDDD73",
"_ 	c #808143",
": 	c #DFE074",
"< 	c #848646",
"[ 	c #DFDF74",
"} 	c #828344",
"| 	c #DEDF73",
"1 	c #828446",
"2 	c #858646",
"3 	c #FAFB82",
"4 	c #E3DB73",
"5 	c #A3844A",
"6 	c #75492F",
"7 	c #7E713E",
"8 	c #868847",
"9 	c #82743F",
"0 	c #7A4F32",
"a 	c #7B5133",
"b 	c #827741",
"c 	c #868848",
"d 	c #858746",
"e 	c #878947",
"f 	c #76793F",
"g 	c #464829",
"h 	c #FAFB83",
"i 	c #FAFC83",
"j 	c #EFDA75",
"k 	c #D49056",
"l 	c #CB8450",
"m 	c #D8C067",
"n 	c #DEE275",
"o 	c #CB8551",
"p 	c #CC8651",
"q 	c #D8C368",
"r 	c #DEE276",
"s 	c #DEE175",
"t 	c #DEE074",
"u 	c #DDDE73",
"v 	c #E1E275",
"w 	c #C5C767",
"x 	c #76783F",
"y 	c #0C1216",
"z 	c #FBFD83",
"A 	c #F3D975",
"B 	c #E6965B",
"C 	c #E6975B",
"D 	c #F4D975",
"E 	c #FBFF84",
"F 	c #F4DA75",
"G 	c #E7975B",
"H 	c #E58F58",
"I 	c #EFC26C",
"J 	c #F4DD77",
"K 	c #F4DC76",
"L 	c #F5E279",
"M 	c #F8F27F",
"N 	c #F5E178",
"O 	c #F5E278",
"P 	c #F9F37F",
"Q 	c #DCC469",
"R 	c #837540",
"S 	c #858645",
"T 	c #DDDE75",
"U 	c #858648",
"V 	c #0C1215",
"W 	c #F4DB76",
"X 	c #E7995C",
"Y 	c #E28052",
"Z 	c #E59159",
"` 	c #E79B5D",
" .	c #E7985B",
"..	c #ECB165",
"+.	c #FBFE83",
"@.	c #EBAE64",
"#.	c #EBAF64",
"$.	c #F6E379",
"%.	c #F6E479",
"&.	c #ECB266",
"*.	c #D08852",
"=.	c #7C5032",
"-.	c #85884C",
";.	c #0E1920",
">.	c #0D151A",
",.	c #CB8451",
"'.	c #D8C068",
").	c #D8C268",
"!.	c #CC8851",
"~.	c #C66945",
"{.	c #C66845",
"].	c #C66744",
"^.	c #C56544",
"/.	c #D59156",
"(.	c #EFDC75",
"_.	c #F5F881",
":.	c #E6E979",
"<.	c #DFC86C",
"[.	c #E3A25E",
"}.	c #F5E379",
"|.	c #F0DD75",
"1.	c #D69357",
"2.	c #AE583C",
"3.	c #673226",
"4.	c #DDDE74",
"5.	c #868952",
"6.	c #122935",
"7.	c #0E1A21",
"8.	c #754B33",
"9.	c #7F754B",
"0.	c #868C52",
"a.	c #86894A",
"b.	c #82753F",
"c.	c #7B5232",
"d.	c #773F2C",
"e.	c #763D2B",
"f.	c #733829",
"g.	c #713427",
"h.	c #A5854B",
"i.	c #E5DF74",
"j.	c #E6E778",
"k.	c #ABAD59",
"l.	c #A59B52",
"m.	c #DEC66B",
"n.	c #E3DD73",
"o.	c #A5844A",
"p.	c #622C23",
"q.	c #35181A",
"r.	c #838855",
"s.	c #153240",
"t.	c #0F1D24",
"u.	c #DEDF74",
"v.	c #828548",
"w.	c #10222B",
"x.	c #132D39",
"y.	c #132A36",
"z.	c #0C1316",
"A.	c #7F7F43",
"B.	c #7A7D41",
"C.	c #DCDD72",
"D.	c #818345",
"E.	c #818654",
"F.	c #0F1C24",
"G.	c #848A51",
"H.	c #132C39",
"I.	c #0E1A20",
"J.	c #888A48",
"K.	c #E2E375",
"L.	c #818244",
"M.	c #7B7D41",
"N.	c #DBDD73",
"O.	c #838545",
"P.	c #ADAE60",
"Q.	c #7E824F",
"R.	c #7D8049",
"S.	c #ACAD5B",
"T.	c #C3C467",
"U.	c #757B51",
"V.	c #0C1115",
"W.	c #797940",
"X.	c #C6C767",
"Y.	c #C4C466",
"Z.	c #71713C",
"`.	c #E8E878",
" +	c #DCDD74",
".+	c #DCDD75",
"++	c #E7E779",
"@+	c #707240",
"#+	c #414E45",
"$+	c #474929",
"%+	c #77773F",
"&+	c #72733C",
"*+	c #393B23",
"=+	c #6E6F3C",
"-+	c #C2C366",
";+	c #6E703D",
">+	c #132C38",
",+	c #0E1B21",
"'+	c #0D161A",
")+	c #75763E",
"!+	c #373B29",
"~+	c #6F7449",
"{+	c #AEB060",
"]+	c #E9E97B",
"^+	c #AEAF5C",
"/+	c #6E703E",
"(+	c #384239",
"_+	c #454728",
":+	c #153140",
"<+	c #71774F",
"[+	c #C3C366",
"}+	c #E1E278",
"|+	c #C3C56B",
"1+	c #0F1C23",
"2+	c #15313F",
"3+	c #414D44",
"4+	c #757642",
"5+	c #87894A",
"6+	c #888C56",
"7+	c #757B50",
"8+	c #3F432D",
"9+	c #14303E",
"0+	c #0F1D25",
"a+	c #132A35",
"b+	c #122934",
"c+	c #0C1419",
"                                                                                                                                ",
"                                                                                                                                ",
"                                                                                                                                ",
"                                                                                                                                ",
"                                                                                                                                ",
"                                                                                                                                ",
"                                                                                                                                ",
"                                                                                                                                ",
"                                                                                                                                ",
"                                                                                                                                ",
"                                                                                                                                ",
"                                                                                                                                ",
"                                                                                                                                ",
"                                                                                                                                ",
"                                                                                                                                ",
"                                                                                                                                ",
"                                                                                                                                ",
"                                                                                                                                ",
"                                                                                                                                ",
"                                      . + @ @ + .                                                                               ",
"                                      # $ % % $ #                                                                               ",
"                                  & * = - ; ; - = * &                                                                           ",
"                                  * > , ' ; ; ' , > *                                                                           ",
"                              . # = , ) ! ~ ~ ! ) , = # .                                                                       ",
"                              + $ - ' ! { ] ] { ! ' - $ +                                                                       ",
"                              ^ / ; ; ( _     _ ( ; ; : <                                                                       ",
"                              ^ [ ; ; ( }     } ( ; ; | 1                                                                       ",
"                              2 ( ; ; ( 2     2 ( ; 3 4 5 6 7 8 8 9 0 a b c c 8 8 8 d 2 2 d 8 8 d d e f g                       ",
"                              2 ( ; ; ( 2     2 ( h i j k l m n n m o p q r n s s t u ( ( u t t u : v w x                       ",
"                              2 ( ; ; ( 2 y   2 ( i z A B C D E E F G H I J K F F L M 3 3 M N O P P L Q R                       ",
"                              S ( ; ; T U V y 2 ( i z A B C D E E W X Y Z ` ` X  ...L +.+.N @.#.$.%.&.*.=.                      ",
"                              S ( ; ; T -.;.>.2 ( h i j k ,.'.n n ).!.~.{.~.~.].^./.(._.:.<.[.@.}.|.1.2.3.                      ",
"                              2 ( ; ; 4.5.6.7.S ( ; 3 4 5 8.9.0.a.b.c.d.e.e.e.f.g.h.i.j.k.l.m.O P n.o.p.q.                      ",
"                              ^ [ ; ; ( r.s.t.} ( ; ; u.v.w.x.y.7.y z.            c v [ A.B.C.i 3 u D.                          ",
"                              ^ / ; ; ( E.s.F._ ( ; ; : G.H.w.I.>.                J.K./ L.M.N.h ; u O.                          ",
"                              + $ - ' ! P.Q.R.S.! ' - T.U.s.F.V.y       z.z.      W.X.Y.Z.L.( ; ; [ 2                           ",
"                              . # = `.) !  +.+++) `.= @+#+s.t.V y       y y       $+%+&+*+2 [ ; ; / ^                           ",
"                                  =+-+, ' ; ; ' , > ;+w.>+6.7.y z.  y >.7.,+'+            )+Y.% % Y.)+                          ",
"                              z.y !+~+{+- ; ; ]+^+/+(+>+w.;.>.    y V I.y.y.,+y z.        _+)+@ @ )+_+                          ",
"                              y y t.:+<+[+% }+|+@+1+2+:+1+V.y     >.;.w.x.y.7.y z.                                              ",
"                              y y t.2+3+4+5+6+7+8+1+2+2+F.V y z.y 7.6.H.w.I.>.                                                  ",
"                              y y t.2+2+1+1+9+9+1+1+2+2+t.y y y y 0+s.s.F.V.y                                                   ",
"                              y y t.:+2+1+1+9+9+1+1+2+:+t.y y y y 0+s.s.t.V y                                                   ",
"                              z.y 7.a+b+;.1+2+2+1+;.b+a+7.y z.z.y 7.a+a+7.y z.                                                  ",
"                                  >.7.I.c+t.:+:+t.c+I.7.>.        >.7.7.>.                                                      ",
"                                    y V y 7.a+a+7.y V y             y y                                                         ",
"                                    z.y   >.7.7.>.  y z.            z.z.                                                        ",
"                                            y y                                                                                 ",
"                                            z.z.                                                                                ",
"                                                                                                                                ",
"                                                                                                                                ",
"                                                                                                                                ",
"                                                                                                                                ",
"                                                                                                                                ",
"                                                                                                                                ",
"                                                                                                                                ",
"                                                                                                                                ",
"                                                                                                                                ",
"                                                                                                                                ",
"                                                                                                                                ",
"                                                                                                                                ",
"                                                                                                                                ",
"                                                                                                                                ",
"                                                                                                                                "};
