/* XPM */
static char * exit_xpm[] = {
"64 64 282 2",
"  	c #0C1317",
". 	c #723E2B",
"+ 	c #C66C47",
"@ 	c #E17B50",
"# 	c #38211C",
"$ 	c #673928",
"% 	c #77412D",
"& 	c #77412C",
"* 	c #733F2B",
"= 	c #995337",
"- 	c #CE7049",
"; 	c #643727",
"> 	c #AE5F3E",
", 	c #C86D47",
"' 	c #C76D47",
") 	c #C66C46",
"! 	c #C56C46",
"~ 	c #CD7049",
"{ 	c #DB774E",
"] 	c #683928",
"^ 	c #76402C",
"/ 	c #743F2C",
"( 	c #9B5438",
"_ 	c #D0714A",
": 	c #E27C51",
"< 	c #AF5F3F",
"[ 	c #C96E48",
"} 	c #DC784E",
"| 	c #301E1B",
"1 	c #633627",
"2 	c #9B5538",
"3 	c #D0724A",
"4 	c #DE784D",
"5 	c #D77145",
"6 	c #D36D40",
"7 	c #D36D41",
"8 	c #DD794F",
"9 	c #E37D52",
"0 	c #E37D53",
"a 	c #D87146",
"b 	c #C15A2C",
"c 	c #B54E1F",
"d 	c #B64F20",
"e 	c #D46D41",
"f 	c #D46E42",
"g 	c #C86235",
"h 	c #B14B1B",
"i 	c #A63F0E",
"j 	c #A63F0F",
"k 	c #A74010",
"l 	c #B54F20",
"m 	c #B24B1C",
"n 	c #AB4414",
"o 	c #A84111",
"p 	c #A94111",
"q 	c #AA4111",
"r 	c #AA4211",
"s 	c #AB4211",
"t 	c #DF794E",
"u 	c #D87246",
"v 	c #B14A1B",
"w 	c #A23F12",
"x 	c #903B13",
"y 	c #873814",
"z 	c #AA4313",
"A 	c #AD4211",
"B 	c #AE4310",
"C 	c #923B13",
"D 	c #5B2C18",
"E 	c #3F251A",
"F 	c #40251A",
"G 	c #42261A",
"H 	c #883914",
"I 	c #893914",
"J 	c #6D3116",
"K 	c #36231B",
"L 	c #191B1E",
"M 	c #1A1B1E",
"N 	c #1C1C1D",
"O 	c #41261A",
"P 	c #38231B",
"Q 	c #251E1D",
"R 	c #1B1B1E",
"S 	c #A34011",
"T 	c #35221B",
"U 	c #1A1B1D",
"V 	c #261F1C",
"W 	c #39231B",
"X 	c #5C2D18",
"Y 	c #231E1D",
"Z 	c #1A1C1D",
"` 	c #37231B",
" .	c #6E3216",
"..	c #8A3914",
"+.	c #9C5539",
"@.	c #CF714A",
"#.	c #6C3116",
"$.	c #34221B",
"%.	c #3D231C",
"&.	c #351D1F",
"*.	c #50241D",
"=.	c #8E3815",
"-.	c #AD4210",
";.	c #221D1D",
">.	c #D1724B",
",.	c #DE7A50",
"'.	c #C15A2D",
").	c #211D1D",
"!.	c #7F3019",
"~.	c #671F23",
"{.	c #6F2123",
"].	c #973717",
"^.	c #AC4310",
"/.	c #AB4210",
"(.	c #79422E",
"_.	c #5D2D17",
":.	c #943C12",
"<.	c #9F3717",
"[.	c #802025",
"}.	c #7E1F26",
"|.	c #9A3618",
"1.	c #A94210",
"2.	c #A94211",
"3.	c #7A432E",
"4.	c #C15B2D",
"5.	c #933C13",
"6.	c #A54111",
"7.	c #9C3718",
"8.	c #7E2025",
"9.	c #7D1F26",
"0.	c #77422E",
"a.	c #C96F49",
"b.	c #D46E41",
"c.	c #993618",
"d.	c #7C1F26",
"e.	c #76412E",
"f.	c #C96F4A",
"g.	c #B64F21",
"h.	c #AA4210",
"i.	c #7B1F26",
"j.	c #39221D",
"k.	c #653828",
"l.	c #975033",
"m.	c #C4653E",
"n.	c #C96235",
"o.	c #B34C1D",
"p.	c #9D3916",
"q.	c #872720",
"r.	c #A53E13",
"s.	c #693A2A",
"t.	c #B06040",
"u.	c #C5663D",
"v.	c #BB5629",
"w.	c #79432F",
"x.	c #CA6F49",
"y.	c #78432E",
"z.	c #C86E48",
"A.	c #B65021",
"B.	c #7C1F25",
"C.	c #78422F",
"D.	c #B75021",
"E.	c #78432F",
"F.	c #D56E42",
"G.	c #A7400F",
"H.	c #703B27",
"I.	c #BB613A",
"J.	c #C96336",
"K.	c #872820",
"L.	c #A94110",
"M.	c #A83F0F",
"N.	c #A73E0F",
"O.	c #A73F10",
"P.	c #A84011",
"Q.	c #5F2B1A",
"R.	c #A0451F",
"S.	c #AB4515",
"T.	c #A84010",
"U.	c #A63C0E",
"V.	c #562315",
"W.	c #933811",
"X.	c #AC4A16",
"Y.	c #B76225",
"Z.	c #BD6F2D",
"`.	c #A93E0F",
" +	c #AB4010",
".+	c #562316",
"++	c #933812",
"@+	c #A53A0D",
"#+	c #B55F24",
"$+	c #D7AA51",
"%+	c #E9D36A",
"&+	c #B65F24",
"*+	c #A73B0D",
"=+	c #AA3F0F",
"-+	c #572416",
";+	c #943913",
">+	c #CC9242",
",+	c #EDDC70",
"'+	c #FEFF88",
")+	c #B86023",
"!+	c #AF4A16",
"~+	c #873713",
"{+	c #41251A",
"]+	c #F7F37E",
"^+	c #FCFF85",
"/+	c #D9AB51",
"(+	c #BA6325",
"_+	c #863512",
":+	c #412419",
"<+	c #BD702D",
"[+	c #FFFF88",
"}+	c #FAFA82",
"|+	c #EBD46A",
"1+	c #C0702D",
"2+	c #853411",
"3+	c #402318",
"4+	c #EAD46A",
"5+	c #ECD469",
"6+	c #C0712D",
"7+	c #B35F27",
"8+	c #CBA257",
"9+	c #E2D475",
"0+	c #F4F17F",
"a+	c #FDFF84",
"b+	c #CDA256",
"c+	c #B66027",
"d+	c #A84110",
"e+	c #A1411B",
"f+	c #934534",
"g+	c #AA7852",
"h+	c #E3D474",
"i+	c #FFFF87",
"j+	c #954633",
"k+	c #A4421B",
"l+	c #883813",
"m+	c #422619",
"n+	c #9C3514",
"o+	c #83201D",
"p+	c #904335",
"q+	c #C1995C",
"r+	c #DBC970",
"s+	c #85211C",
"t+	c #9F3614",
"u+	c #883913",
"v+	c #A43D12",
"w+	c #9C3614",
"x+	c #963920",
"y+	c #924636",
"z+	c #904D42",
"A+	c #9E3714",
"B+	c #A83E11",
"C+	c #AA4310",
"D+	c #9E3915",
"E+	c #86241E",
"F+	c #781A23",
"G+	c #A53E12",
"H+	c #9C3715",
"I+	c #983316",
"J+	c #AC4211",
"K+	c #883814",
"L+	c #A43E13",
"M+	c #872721",
"N+	c #1D1C1D",
"O+	c #743115",
"P+	c #963A13",
"Q+	c #943A13",
"R+	c #943A12",
"S+	c #873018",
"T+	c #6D1C22",
"U+	c #863018",
"V+	c #6C1C23",
"W+	c #1E1C1D",
"X+	c #261E1B",
"Y+	c #3C2017",
"Z+	c #5C2516",
"`+	c #5A2416",
" @	c #4F1F17",
".@	c #3F161B",
"+@	c #3E161C",
"@@	c #1F1D1D",
"#@	c #1C1B1C",
"$@	c #0D1419",
"                                                  . + @ @ @ @ @ @ @ @ @ @ + .                                                   ",
"                                      # $ % & * . = - @ @ @ @ @ @ @ @ @ @ - = . * & % $ #                                       ",
"                                      ; > , ' ) ! ~ { @ @ @ @ @ @ @ @ @ @ { ~ ! ) ' , > ;                                       ",
"                              # ] ^ / ( _ @ @ @ : : : : : : : : : : : : : : : : @ @ @ _ ( / ^ ] #                               ",
"                              ; < [ , - } @ @ @ : : : : : : : : : : : : : : : : @ @ @ } - , [ < ;                               ",
"                          | 1 2 3 @ @ @ : : : 4 5 6 7 7 7 7 7 7 7 7 7 7 7 7 6 5 4 : : : @ @ @ 3 2 1 |                           ",
"                          1 < 3 8 @ @ @ : 9 0 a b c c d d d d d d d d d d c c b a 0 9 : @ @ @ 8 3 < 1                           ",
"                      | 1 2 3 @ : : : 4 5 e f g h i j k k k k k k k k k k j i h g f e 5 4 : : : @ 3 2 1 |                       ",
"                      1 < 3 8 @ : 9 0 a b c l m n k k k k k k k k k k k k k k n m l c b a 0 9 : @ 8 3 < 1                       ",
"                  | 1 2 3 @ : 4 5 e f g h i j k o p q r r r r r r r r r r q p o k j i h g f e 5 4 : @ 3 2 1 |                   ",
"                  1 < 3 8 : 9 a b c l m n k k k o p r s s s s s s s s s s r p o k k k n m l c b a 9 : 8 3 < 1                   ",
"              | 1 2 3 @ : t u g v i j k o p q s s w x y y y y y y y y y y x w s s q p o k j i v g u t : @ 3 2 1 |               ",
"              1 < 3 8 : 9 u b v z k k k o p r A B C D E F G G G G G G F E D C B A r p o k k k z v b u 9 : 8 3 < 1               ",
"          # ; 2 3 @ : t u g v j k o o p r w x H I J K L M N N N N N N M L K J I H x w r p o o k j v g u t : @ 3 2 ; #           ",
"          ] < 3 8 : 9 u b v z k o o o r A C D F O P Q R R N N N N N N R R Q P O F D C A r o o o k z v b u 9 : 8 3 < ]           ",
"          ^ [ @ : t u g v j k o o p r S C J T L U V W G G G G G G G G G G P Q L L T J C S r p o o k j v g u t : @ [ ^           ",
"          / , : 9 u b v z k o o o r A C X K Y M Z `  ...I y y y y y y I ..J K L L Y K X C A r o o o k z v b u 9 : , /           ",
"      # ; +.@.t u g v j k o o p r S C #.$.Y ` %.&.*.=.B -.s s s s s s A B C D F O ` ;.$.#.C S r p o o k j v g u t @.+.; #       ",
"      ] < >.,.u '.v z k o o o r A C X $.).K  .!.~.{.].^./.r r r r r r s s w x H I J T ).$.X C A r o o o k z v '.u ,.>.< ]       ",
"      (.[ 4 u g v j k o o p r S C #.$.).$._.:.<.[.}.|.1.2.o o o o o o o o p r A B C X $.).$.#.C S r p o o k j v g u 4 [ (.      ",
"      3.[ 5 4.v z k o o o r A C X $.).$.#.5.6.7.8.9.|.1.2.o o o o o o o o o q s s S C #.$.).$.X C A r o o o k z v 4.5 [ 3.      ",
"      0.a.b.d i k o o p r S C #.$.).$.X C B ^.c.d.d.c.1.2.o o o o o o o o o p p o r A C X $.).$.#.C S r p o o k i d b.a.0.      ",
"      e.f.f g.j k o o r A C X $.).$.#.C S /.h.c.i.i.c.1.2.o o o o o o o o o 2.2.o p r S C #.$.).$.X C A r o o k j g.f f.e.      ",
"  j.k.l.m.n.o.k k o p w C J K ;.T X C A r p 2.p.q.q.p.2.p o o o o o o o o r.p.p.r.o o r A C X T ;.K J C w p o k k o.n.m.l.k.j.  ",
"  s.t.u.v.m n o o q r x D T Y ` J C S r p o o r.p.p.r.o o o o o o o o p 2.p.q.q.p.2.p p r S C J ` Y T D x r q o o n m v.u.t.s.  ",
"  w.x.7 d i k o o s A H F L L O I B s o o o o o 2.2.o o o o o o o o o 2.1.c.i.i.c.1.2.o o s B I O L L F H A s o o k i d 7 x.w.  ",
"  y.a.e d j k o o s B I O L L F H A s o o o o o p p o o o o o o o o o 2.1.c.d.d.c.1.2.o o s A H F L L O I B s o o k j d e a.y.  ",
"  0.z.e A.k k o p w C J P Q K D x r q o o o o o o o o o o o o o o o o 2.1.|.B.B.|.1.2.o o q r x D K Q P J C w p o k k A.e z.0.  ",
"  0.z.e A.k k q r x D K Q P J C w p o o o o o o o o o o o o o o o o o 2.1.|.B.B.|.1.2.o o o p w C J P Q K D x r q k k A.e z.0.  ",
"  0.z.e A.k k r s y E L R G ..B s o o o o o o o p p o o o o o o o o o 2.1.|.B.B.|.1.2.o o o o s B ..G R L E y s r k k A.e z.0.  ",
"  0.z.e A.k k r s y F M R G I A s o o o o o o o 2.2.o o o o o o o o o 2.1.|.B.B.|.1.2.o o o o s A I G R M F y s r k k A.e z.0.  ",
"  C.a.f D.k k r s y G N N G y s r o o o o o o r.p.p.r.o o o o o o o o 2.1.c.d.d.c.1.2.o o o o r s y G N N G y s r k k D.f a.C.  ",
"  E.a.F.D.G.k r s y G N N G y s r o o o o p 2.p.q.q.p.2.p o o o o o o 2.1.c.i.i.c.1.2.o o o o r s y G N N G y s r k G.D.F.a.E.  ",
"  H.I.J.o.k k r s y G N N G y s r o o o o 2.1.c.i.i.c.1.2.o o o o o o p 2.p.q.K.p.L.M.N.N.O.P.r s y G N N G y s r k k o.J.I.H.  ",
"  Q.R.o.S.o o r s y G N N G y s r o o o o 2.1.c.d.d.c.1.2.o o o o o o o o r.p.p.r.T.N.U.U.N.T.r s y G N N G y s r o o S.o.R.Q.  ",
"  V.W.k o o o r s y G N N G y s r o o o o 2.1.|.B.B.|.1.2.o o o o o o o o o 2.T.N.X.Y.Z.Z.Y.X.`. +y G N N G y s r o o o k W.V.  ",
"  .+++k o o o r s y G N N G y s r o o o o 2.1.|.B.B.|.1.2.o o o o o o o o o 2.N.@+#+$+%+%+$+&+*+=+y G N N G y s r o o o k ++.+  ",
"  -+;+o o o o r s y G N N G y s r o o o o 2.1.|.B.B.|.1.2.o o o o o o o o P.T.X.&+>+,+'+'+,+>+)+!+~+{+N N G y s r o o o o ;+-+  ",
"  -+;+o o o o r s y G N N G y s r o o o o 2.1.|.B.B.|.1.2.o o o o o o o o O.N.Y.$+,+]+^+^+]+,+/+(+_+:+N N G y s r o o o o ;+-+  ",
"  -+;+o o o o r s y G N N G y s r o o o o 2.1.c.d.d.c.1.2.o o o o o o o o N.U.<+%+[+^+}+}+^+[+|+1+2+3+N N G y s r o o o o ;+-+  ",
"  -+;+o o o o r s y G N N G y s r o o o o 2.1.c.i.i.c.1.2.o o o o o o o o N.U.<+4+[+^+}+}+^+[+5+6+2+3+N N G y s r o o o o ;+-+  ",
"  -+;+o o o o r s y G N N G y s r o o o o p 2.p.q.q.p.2.p o o o o o o o o O.N.7+8+9+0+a+a+0+9+b+c+_+:+N N G y s r o o o o ;+-+  ",
"  -+;+o o o o r s y G N N G y s r o o o o o o r.p.p.r.o o o o o o o o o o d+L.e+f+g+h+i+i+h+g+j+k+l+m+N N G y s r o o o o ;+-+  ",
"  -+;+o o o o r s y G N N G y s r o o o o o o o 2.2.o o o o o o o o o o o 2.2.n+o+p+q+r+r+q+p+s+t+u+G N N G y s r o o o o ;+-+  ",
"  -+;+o o o o r s y G N N G y s r o o o o o o o p p o o o o o o o o o o o o o v+w+x+y+z+z+y+x+A+B+H G N N G y s r o o o o ;+-+  ",
"  -+;+o o o o r s y G N N G y s r o o o o o o o o o o o o o o o o o o o o o p h.C+D+E+F+F+E+D+^.^.y G N N G y s r o o o o ;+-+  ",
"  -+;+o o o o r s y G N N G y s r o o o o o o o o o o o o o o o o o o o o o 2.1.1.G+H+I+I+H+G+/.J+y G N N G y s r o o o o ;+-+  ",
"  -+;+o o o o r s y G N N G y s r o o o o o o o p p o o o o o o o o o o o r.p.p.r.p 1.1.1.2.o r s y G N N G y s r o o o o ;+-+  ",
"  -+;+o o o o r s y G N N G y s r o o o o o o o 2.2.o o o o o o o o o p 2.p.q.q.p.1.1.2.2.p o r s y G N N G y s r o o o o ;+-+  ",
"  -+;+o o o o r s y G N N G y s r o o o o o o r.p.p.r.o o o o o o o o 2.1.c.i.i.c.1.2.o o o o r s y G N N G y s r o o o o ;+-+  ",
"  -+;+o o o o r s y G N N G y s r o o o o p 2.p.q.q.p.2.p o o o o o o 2.1.c.d.d.c.1.2.o o o o r s y G N N G y s r o o o o ;+-+  ",
"  -+;+o o o o r s y G N N G y s r o o o o 2.1.c.i.i.c.1.2.o o o o o o 2.1.|.B.B.|.1.2.o o o o r s y G N N G y s r o o o o ;+-+  ",
"  -+;+o o o o r s y G N N G y s r o o o o 2.1.c.d.d.c.1.2.o o o o o o 2.1.|.B.B.|.1.2.o o o o r s y G N N G y s r o o o o ;+-+  ",
"  -+;+o o o o r s y G N N G y s r o o o o 2.1.|.B.B.|.1.2.o o o o o o 2.1.c.d.d.c.1.2.o o o o r s y G N N G y s r o o o o ;+-+  ",
"  -+;+o o o o r s y G N N G y s r o o o o 2.1.|.B.B.|.1.2.o o o o o o 2.1.c.i.i.c.1.2.o o o o r s y G N N G y s r o o o o ;+-+  ",
"  -+;+o o o o r s y G N N G y s r o o o o 2.1.|.B.B.|.1.2.o o o o o o p 2.p.q.q.p.2.p o o o o r s y G N N G y s r o o o o ;+-+  ",
"  -+;+o o o o r s y G N N G y s r o o o o 2.1.|.B.B.|.1.2.o o o o o o o o r.p.p.r.o o o o o o r s y G N N G y s r o o o o ;+-+  ",
"  -+;+o o o o r s y G N N G y s r o o o o 2.1.|.B.B.|.1.2.o o o o o o o o p h.h.p o o o o o o r s y G N N G y s r o o o o ;+-+  ",
"  -+;+o o o o r s y G N N G y s r o o o o 2.1.|.B.B.|.1.2.o o o o o o o o p h.h.p o o o o o o r s y G N N G y s r o o o o ;+-+  ",
"  -+;+o o o o r s y G N N G K+s r o o o o 2.1.|.B.B.|.1.2.o o o o o o o o L+p.p.L+o o o o o o r s K+G N N G y s r o o o o ;+-+  ",
"  -+;+o o o o r s y G N N G K+s r o o o o 2.1.|.B.B.|.1.2.o o o o o o p 2.p.M+M+p.2.p o o o o r s K+G N N G y s r o o o o ;+-+  ",
"  -+;+o o o o r s y G N N+W O+P+P+;+;+;+;+Q+R+S+T+T+S+R+Q+;+;+;+;+;+;+Q+R+U+V+V+U+R+Q+;+;+;+;+P+P+O+W N+N G y s r o o o o ;+-+  ",
"  -+;+o o o o r s y G N+W+X+Y+Z+`+-+-+-+-+-+-+ @.@.@ @-+-+-+-+-+-+-+-+-+-+ @+@+@ @-+-+-+-+-+-+`+Z+Y+X+W+N+G y s r o o o o ;+-+  ",
"  -+;+o o o o r s y G W+@@#@$@                                                                    $@#@@@W+G y s r o o o o ;+-+  "};
