/* XPM */
static char * key_anim2_xpm[] = {
"64 64 246 2",
"  	c #0C1317",
". 	c #0A1013",
"+ 	c #030707",
"@ 	c #000000",
"# 	c #030507",
"$ 	c #0B1216",
"% 	c #0A1114",
"& 	c #171B16",
"* 	c #333221",
"= 	c #3C3622",
"- 	c #3B2E18",
"; 	c #312312",
"> 	c #171512",
", 	c #0A1014",
"' 	c #050A0C",
") 	c #323222",
"! 	c #948360",
"~ 	c #C2A16E",
"{ 	c #BF914E",
"] 	c #90672E",
"^ 	c #05090C",
"/ 	c #091013",
"( 	c #030A08",
"_ 	c #424031",
": 	c #C4AE8B",
"< 	c #FFE0A3",
"[ 	c #FFC86F",
"} 	c #BB863B",
"| 	c #3A2912",
"1 	c #030506",
"2 	c #090F13",
"3 	c #0C1215",
"4 	c #101413",
"5 	c #4F4C45",
"6 	c #C7B8A6",
"7 	c #FFE6B9",
"8 	c #FFC975",
"9 	c #BA853A",
"0 	c #3A2911",
"a 	c #0E1317",
"b 	c #17181A",
"c 	c #55524F",
"d 	c #C7BCB2",
"e 	c #FFEAC8",
"f 	c #FFCF88",
"g 	c #B98B49",
"h 	c #3A2C16",
"i 	c #55514E",
"j 	c #C7BBB1",
"k 	c #FFEFD2",
"l 	c #FFDFA9",
"m 	c #BD9B6A",
"n 	c #3C3121",
"o 	c #0E1316",
"p 	c #161819",
"q 	c #C7BAAF",
"r 	c #FFF1D7",
"s 	c #FFE8BA",
"t 	c #BFA37B",
"u 	c #3C3326",
"v 	c #FFE7BA",
"w 	c #BFA37A",
"x 	c #54514D",
"y 	c #FFE7B9",
"z 	c #BFA379",
"A 	c #0F1418",
"B 	c #1A1C1C",
"C 	c #585451",
"D 	c #C8BBB0",
"E 	c #13171A",
"F 	c #212224",
"G 	c #5E5A57",
"H 	c #CABEB3",
"I 	c #FFE7B8",
"J 	c #15191C",
"K 	c #262728",
"L 	c #625D5B",
"M 	c #CBBFB4",
"N 	c #FFF1D6",
"O 	c #262628",
"P 	c #14181B",
"Q 	c #0C1316",
"R 	c #0C1216",
"S 	c #0D161A",
"T 	c #0E1B21",
"U 	c #0E1A21",
"V 	c #0D151A",
"W 	c #C8BCB1",
"X 	c #132A36",
"Y 	c #0E1A20",
"Z 	c #5F5B58",
"` 	c #CABEB4",
" .	c #FFE9C7",
"..	c #132D39",
"+.	c #10222B",
"@.	c #0E1920",
"#.	c #625E5C",
"$.	c #CBC0B6",
"%.	c #FFE6C1",
"&.	c #FFC676",
"*.	c #B78338",
"=.	c #132C39",
"-.	c #122935",
";.	c #15181B",
">.	c #0C1115",
",.	c #0F1C24",
"'.	c #153240",
").	c #0F1D24",
"!.	c #15191D",
"~.	c #262729",
"{.	c #CBBFB5",
"].	c #151D22",
"^.	c #262A2E",
"/.	c #FFEED1",
"(.	c #132C38",
"_.	c #161F24",
":.	c #272C32",
"<.	c #CBBEB4",
"[.	c #090F12",
"}.	c #0C1419",
"|.	c #0E191F",
"1.	c #0B1114",
"2.	c #161E24",
"3.	c #090E12",
"4.	c #0C1418",
"5.	c #0F1C23",
"6.	c #15313F",
"7.	c #153140",
"8.	c #17232A",
"9.	c #272A2F",
"0.	c #030608",
"a.	c #0B161C",
"b.	c #132A35",
"c.	c #122934",
"d.	c #192A34",
"e.	c #26292C",
"f.	c #04080C",
"g.	c #0F242F",
"h.	c #14303E",
"i.	c #182D3A",
"j.	c #222426",
"k.	c #5E5A58",
"l.	c #040D12",
"m.	c #0F2731",
"n.	c #162C38",
"o.	c #1A1E20",
"p.	c #585452",
"q.	c #C8BDB3",
"r.	c #051219",
"s.	c #0D1D25",
"t.	c #142C38",
"u.	c #171A1D",
"v.	c #54504B",
"w.	c #C7B8A7",
"x.	c #FFE3B7",
"y.	c #FFC674",
"z.	c #B88339",
"A.	c #06151D",
"B.	c #0C171F",
"C.	c #142C39",
"D.	c #171B1D",
"E.	c #554E44",
"F.	c #C7B091",
"G.	c #FFDCA1",
"H.	c #FFC46D",
"I.	c #B8843A",
"J.	c #0C181F",
"K.	c #132630",
"L.	c #181B1E",
"M.	c #554A3B",
"N.	c #C5A474",
"O.	c #FFCF84",
"P.	c #FFC064",
"Q.	c #B8843C",
"R.	c #3A2A12",
"S.	c #051117",
"T.	c #101920",
"U.	c #171A1E",
"V.	c #544531",
"W.	c #C29554",
"X.	c #FFBF63",
"Y.	c #FFBB59",
"Z.	c #B8853D",
"`.	c #3A2A13",
" +	c #0A1116",
".+	c #101517",
"++	c #4D3E25",
"@+	c #BE8B42",
"#+	c #FFB853",
"$+	c #FFB955",
"%+	c #B8853E",
"&+	c #3A2A14",
"*+	c #030C0B",
"=+	c #403419",
"-+	c #BA883E",
";+	c #FFB854",
">+	c #FFB956",
",+	c #B8863E",
"'+	c #393013",
")+	c #B8873D",
"!+	c #FFB752",
"~+	c #FFB34A",
"{+	c #B88033",
"]+	c #3A2810",
"^+	c #3A3014",
"/+	c #B8883E",
"(+	c #FFA733",
"_+	c #B8741B",
":+	c #3A2408",
"<+	c #3A3114",
"[+	c #B8883F",
"}+	c #FFB146",
"|+	c #FFA127",
"1+	c #B86E10",
"2+	c #3A2304",
"3+	c #FFA227",
"4+	c #3A2305",
"5+	c #030607",
"6+	c #3A2F14",
"7+	c #B8873F",
"8+	c #FFA228",
"9+	c #B86F11",
"0+	c #3A2C14",
"a+	c #B8863F",
"b+	c #3B2B14",
"c+	c #BB8840",
"d+	c #FFB447",
"e+	c #FFA528",
"f+	c #BB7011",
"g+	c #3B2305",
"h+	c #3B2B15",
"i+	c #BC8940",
"j+	c #FFB648",
"k+	c #FFA629",
"l+	c #BC7111",
"m+	c #3B2405",
"n+	c #2B200F",
"o+	c #8A642F",
"p+	c #BF8535",
"q+	c #BF791E",
"r+	c #8A530C",
"s+	c #2B1A04",
"t+	c #0E0A05",
"u+	c #3C2A11",
"v+	c #3C2609",
"w+	c #0E0801",
"                                                          . + @ @ # .                                                           ",
"                                                      $ % & * = - ; > % $                                                       ",
"                                                      , ' ) ! ~ { ] ; ^ ,                                                       ",
"                                                      / ( _ : < [ } | 1 2                                                       ",
"                                                      3 4 5 6 7 8 9 0 # 2                                                       ",
"                                                      a b c d e f g h # 2                                                       ",
"                                                      a b i j k l m n # 2                                                       ",
"                                                      o p i q r s t u # 2                                                       ",
"                                                      o p i q r v w u # 2                                                       ",
"                                                      o p x q r y z u # 2                                                       ",
"                                                      o p x q r y z u # 2                                                       ",
"                                                      A B C D r y z u # 2                                                       ",
"                                                      E F G H r I z u # 2                                                       ",
"                                                      J K L M N I z u # 2                                                       ",
"                                                      J O L M N I z u # 2                                                       ",
"                                                      P O L M N I z u # 2                                                       ",
"                                                      P O L M N I z u # 2                                                       ",
"                                                      P O L M N I z u # 2                                                       ",
"                                                      P O L M N I z u # 2                                                       ",
"                                                      J O L M N I z u # 2                                                       ",
"                                                      J K L M N I z u # 2                                                       ",
"                                                      E F G H r I z u # 2                                                       ",
"                                                      A B C D r y z u # 2                                                       ",
"                                                      o p x q r y z u # 2                                                       ",
"                                                      o p x q r y z u # 2                                                       ",
"                                                      o p i q r y z u # 2                                                       ",
"                                                      o p i q r y z u # 2                                                       ",
"                                    Q Q               o p x q r v w u # 2                                                       ",
"                                    R R               o p x q r s t u # 2                                                       ",
"                                  S T U V R           A B C W k l m n # 2                                                       ",
"                              Q R T X X Y 3 R         E F Z `  .f g h # 2                                                       ",
"                              Q R U X ..+.@.V         J O #.$.%.&.*.0 # 2                                                       ",
"                                  V Y +.=.-.U R Q     ;.O #.$.%.&.*.0 # 2                                                       ",
"                                  R >.,.'.'.).3 R     !.~.#.{. .f g h # 2                                                       ",
"                                  R 3 ).'.'.,.>.R Q R ].^.L M /.l m n # 2                                                       ",
"                                  R R Y -.(.+.Y V R 3 _.:.L <.r v t u # [.Q                                                     ",
"                                    R }.|.+.(.-.U 3 1.2.:.L M r y w u # 3.R                                                     ",
"                                  V U @.4.5.6.7.).4.|.8.9.L M r y w u 0.a.T S                                                   ",
"                              Q R U b.c.|.5.6.6.5.@.c.d.e.L M r v t u f.g.X T R Q                                               ",
"                              R R ).7.6.5.5.h.h.5.5.6.i.j.k.` k l m n l.m.X U R Q                                               ",
"                              R R ).6.6.5.5.h.h.5.5.6.n.o.p.q.e f g h r.s.Y V                                                   ",
"                              R R ).6.6.5.5.h.h.5.5.6.t.u.v.w.x.y.z.0 A.B.>.R                                                   ",
"                              R R ).7.6.5.5.h.h.5.5.6.C.D.E.F.G.H.I.| A.J.3 R                                                   ",
"                              Q R U b.c.@.5.6.6.5.@.c.K.L.M.N.O.P.Q.R.S.a.R Q                                                   ",
"                                  V U Y }.).7.7.).}.Y T.U.V.W.X.Y.Z.`.f. +                                                      ",
"                                    R 3 R U b.b.U R 3 R .+++@+#+$+%+&+1 2                                                       ",
"                                    Q R   V U U V   R / *+=+-+;+>+,+&+1 2                                                       ",
"                                            R R       2 + '+)+!+~+{+]+# 2                                                       ",
"                                            Q Q       2 + ^+/+~+(+_+:+# 2                                                       ",
"                                                      2 + <+[+}+|+1+2+# 2                                                       ",
"                                                      2 + <+[+}+3+1+4+# 2                                                       ",
"                                                      2 5+6+7+}+8+9+4+# 2                                                       ",
"                                                      2 # 0+a+}+8+9+4+# 2                                                       ",
"                                                      2 # b+c+d+e+f+g+# 2                                                       ",
"                                                      2 # h+i+j+k+l+m+# 2                                                       ",
"                                                      2 # n+o+p+q+r+s+# 2                                                       ",
"                                                      2 1 t+n+u+v+s+w+1 2                                                       ",
"                                                      , ^ 1 # # # # 1 ^ ,                                                       ",
"                                                      $ , 2 2 2 2 2 2 , $                                                       ",
"                                                                                                                                ",
"                                                                                                                                ",
"                                                                                                                                ",
"                                                                                                                                ",
"                                                                                                                                "};
