/* XPM */
static char * key_anim4_xpm[] = {
"64 64 591 2",
"  	c #0C1317",
". 	c #0A1013",
"+ 	c #030607",
"@ 	c #000000",
"# 	c #030507",
"$ 	c #0F1519",
"% 	c #161A1D",
"& 	c #262827",
"* 	c #363932",
"= 	c #3C3A2D",
"- 	c #3B2F1C",
"; 	c #312312",
"> 	c #171512",
", 	c #0A1114",
"' 	c #0B1216",
") 	c #13171B",
"! 	c #222325",
"~ 	c #53514F",
"{ 	c #9E978F",
"] 	c #C1AD90",
"^ 	c #BE9459",
"/ 	c #90672D",
"( 	c #312311",
"_ 	c #05090C",
": 	c #0A1014",
"< 	c #13171A",
"[ 	c #5F5A56",
"} 	c #CEBEAE",
"| 	c #FFEABD",
"1 	c #FFCD79",
"2 	c #BD883C",
"3 	c #3A2A12",
"4 	c #030506",
"5 	c #090F13",
"6 	c #0F1518",
"7 	c #1B1C1E",
"8 	c #585148",
"9 	c #CAB394",
"0 	c #FFE0A4",
"a 	c #FFCA71",
"b 	c #BD883D",
"c 	c #0C1216",
"d 	c #131619",
"e 	c #524839",
"f 	c #C6A474",
"g 	c #F4C47F",
"h 	c #D19E54",
"i 	c #90682F",
"j 	c #312412",
"k 	c #0C1217",
"l 	c #111519",
"m 	c #51432E",
"n 	c #C59654",
"o 	c #CE9B52",
"p 	c #6C5028",
"q 	c #2D2211",
"r 	c #141312",
"s 	c #0E1418",
"t 	c #15191C",
"u 	c #2C2D2F",
"v 	c #484646",
"w 	c #806B4F",
"x 	c #D49D50",
"y 	c #BA853A",
"z 	c #382811",
"A 	c #091013",
"B 	c #212324",
"C 	c #565251",
"D 	c #A59D96",
"E 	c #DABE9C",
"F 	c #F2B969",
"G 	c #B88337",
"H 	c #382710",
"I 	c #222324",
"J 	c #5F5B59",
"K 	c #CDC1B7",
"L 	c #FFEFCE",
"M 	c #FFD494",
"N 	c #B88E54",
"O 	c #382B19",
"P 	c #0F1418",
"Q 	c #1B1C1D",
"R 	c #585451",
"S 	c #CABEB3",
"T 	c #FFF5E0",
"U 	c #FFECCD",
"V 	c #BBA68B",
"W 	c #37312A",
"X 	c #0E1317",
"Y 	c #16181A",
"Z 	c #554F4A",
"` 	c #C7B7A4",
" .	c #FFF3DC",
"..	c #FFF6E6",
"+.	c #CFBFAF",
"@.	c #6A5A45",
"#.	c #2D200E",
"$.	c #141211",
"%.	c #0E1417",
"&.	c #17181B",
"*.	c #554D43",
"=.	c #C7AF8E",
"-.	c #FFEAC5",
";.	c #FFF1DC",
">.	c #F0D8BB",
",.	c #CEA367",
"'.	c #0A1115",
").	c #0D1213",
"!.	c #4B4231",
"~.	c #C2A16F",
"{.	c #FFDCA4",
"].	c #FFE8C6",
"^.	c #FFE1B6",
"/.	c #FFC775",
"(.	c #BB863B",
"_.	c #3A2912",
":.	c #030807",
"<.	c #3C3219",
"[.	c #BA8E4B",
"}.	c #FFCA7D",
"|.	c #FFDBA5",
"1.	c #FFD9A0",
"2.	c #FFC46E",
"3.	c #BA863C",
"4.	c #0D1317",
"5.	c #101518",
"6.	c #1D2122",
"7.	c #30352F",
"8.	c #695836",
"9.	c #C78E3B",
"0.	c #FCB554",
"a.	c #FEC97E",
"b.	c #FFCD84",
"c.	c #FFC065",
"d.	c #BA863D",
"e.	c #3A2A13",
"f.	c #151819",
"g.	c #484644",
"h.	c #9C958D",
"i.	c #D0B189",
"j.	c #EBA141",
"k.	c #F7A12E",
"l.	c #F8B354",
"m.	c #FDBE65",
"n.	c #FFBC5B",
"o.	c #BB873E",
"p.	c #0C1215",
"q.	c #101413",
"r.	c #4F4E4A",
"s.	c #C9BDB3",
"t.	c #FFE7C2",
"u.	c #FFBF6F",
"v.	c #F9A942",
"w.	c #FAAC41",
"x.	c #EBA442",
"y.	c #CB9140",
"z.	c #8F6730",
"A.	c #312413",
"B.	c #030A07",
"C.	c #43443B",
"D.	c #C3B8AB",
"E.	c #FFF2DC",
"F.	c #FFE3C0",
"G.	c #FFCB8C",
"H.	c #FFAF46",
"I.	c #CB801E",
"J.	c #674516",
"K.	c #2C2212",
"L.	c #131312",
"M.	c #393A33",
"N.	c #BEB3A7",
"O.	c #FFF7E9",
"P.	c #FFF7EB",
"Q.	c #F0D2B0",
"R.	c #CC8F43",
"S.	c #8C5108",
"T.	c #2B1905",
"U.	c #050A0C",
"V.	c #373633",
"W.	c #BDB2A8",
"X.	c #FFF8EA",
"Y.	c #FFF8EB",
"Z.	c #CDBCAB",
"`.	c #665138",
" +	c #271505",
".+	c #0E0E10",
"++	c #141311",
"@+	c #2D200F",
"#+	c #6A563C",
"$+	c #CDB392",
"%+	c #FFE9C9",
"&+	c #FFEFD3",
"*+	c #CEBAA3",
"=+	c #685842",
"-+	c #2B2010",
";+	c #131211",
">+	c #CD974C",
",+	c #EBB467",
"'+	c #FCCB87",
")+	c #FFDBA8",
"!+	c #F1CD9A",
"~+	c #D0A15E",
"{+	c #91692F",
"]+	c #312411",
"^+	c #3A2A14",
"/+	c #BB883F",
"(+	c #FFB751",
"_+	c #FBAF45",
":+	c #F8B455",
"<+	c #FCC87E",
"[+	c #F0C27E",
"}+	c #D39F55",
"|+	c #946A30",
"1+	c #3A2B14",
"2+	c #BA8840",
"3+	c #FFB34A",
"4+	c #FBA430",
"5+	c #F9A534",
"6+	c #FCB757",
"7+	c #CA9953",
"8+	c #6B5029",
"9+	c #302312",
"0+	c #372710",
"a+	c #B78034",
"b+	c #FBA838",
"c+	c #F8991C",
"d+	c #F99B1F",
"e+	c #FEAF43",
"f+	c #B8863E",
"g+	c #362712",
"h+	c #362208",
"i+	c #B7741D",
"j+	c #FA9B1E",
"k+	c #F5900A",
"l+	c #F69717",
"m+	c #FFAF41",
"n+	c #BA873F",
"o+	c #382913",
"p+	c #0C1316",
"q+	c #12171A",
"r+	c #14181D",
"s+	c #13191E",
"t+	c #1D1D1B",
"u+	c #302517",
"v+	c #674414",
"w+	c #C67812",
"x+	c #F99511",
"y+	c #F89613",
"z+	c #E7931F",
"A+	c #C98B35",
"B+	c #8F6831",
"C+	c #312514",
"D+	c #14181C",
"E+	c #212224",
"F+	c #242528",
"G+	c #22252A",
"H+	c #4C4132",
"I+	c #9A733D",
"J+	c #CA8A31",
"K+	c #E48B12",
"L+	c #F69512",
"M+	c #FDA732",
"N+	c #C98C36",
"O+	c #67491F",
"P+	c #2C2112",
"Q+	c #0D161A",
"R+	c #0E1B21",
"S+	c #0E1A21",
"T+	c #0D151A",
"U+	c #2F2F30",
"V+	c #5F5953",
"W+	c #5D5142",
"X+	c #84653B",
"Y+	c #D4963F",
"Z+	c #FBA62F",
"`+	c #F4930E",
" @	c #E3890E",
".@	c #8F6933",
"+@	c #2C2113",
"@@	c #132A36",
"#@	c #0E1A20",
"$@	c #0D1215",
"%@	c #151719",
"&@	c #4C4A48",
"*@	c #A69D97",
"=@	c #CCB69E",
"-@	c #C79E67",
";@	c #CF923C",
">@	c #E89421",
",@	c #F6940E",
"'@	c #F48E03",
")@	c #C17105",
"!@	c #664210",
"~@	c #2D2215",
"{@	c #101212",
"]@	c #132D39",
"^@	c #10222B",
"/@	c #0D171C",
"(@	c #101415",
"_@	c #4F4D47",
":@	c #C8BAA9",
"<@	c #FFE4B8",
"[@	c #FFC16A",
"}@	c #F8A32F",
"|@	c #F2910E",
"1@	c #F38B00",
"2@	c #F48C00",
"3@	c #B06500",
"4@	c #341D00",
"5@	c #132C39",
"6@	c #0E232E",
"7@	c #030E0E",
"8@	c #434133",
"9@	c #C3AF8F",
"0@	c #FFD799",
"a@	c #FFB149",
"b@	c #F79719",
"c@	c #F59210",
"d@	c #F69009",
"e@	c #F58E03",
"f@	c #B16600",
"g@	c #351E00",
"h@	c #091012",
"i@	c #0C1115",
"j@	c #0F1C24",
"k@	c #153240",
"l@	c #112B38",
"m@	c #040A0E",
"n@	c #38311C",
"o@	c #BA955C",
"p@	c #FFC471",
"q@	c #FDB355",
"r@	c #F8AA47",
"s@	c #F9AB49",
"t@	c #F9A436",
"u@	c #F69310",
"v@	c #B26500",
"w@	c #382000",
"x@	c #090F12",
"y@	c #0F1D24",
"z@	c #112C38",
"A@	c #04090E",
"B@	c #342205",
"C@	c #B37319",
"D@	c #FAAE48",
"E@	c #FECC8D",
"F@	c #FDDBB3",
"G@	c #FDDBB4",
"H@	c #FDC783",
"I@	c #F79E27",
"J@	c #B16300",
"K@	c #381F00",
"L@	c #0D191F",
"M@	c #102530",
"N@	c #17252B",
"O@	c #2E2418",
"P@	c #663F0B",
"Q@	c #C26F00",
"R@	c #F8A537",
"S@	c #FED9AC",
"T@	c #FFF4EB",
"U@	c #FFF4EA",
"V@	c #FFDEB6",
"W@	c #FBB456",
"X@	c #B57319",
"Y@	c #392407",
"Z@	c #0A1116",
"`@	c #060F12",
" #	c #312B18",
".#	c #906A31",
"+#	c #CB892F",
"@#	c #E88D15",
"##	c #F8A740",
"$#	c #FDD9AD",
"%#	c #FFF2E7",
"&#	c #FFF2E6",
"*#	c #FFE8CB",
"=#	c #FFD598",
"-#	c #BB935B",
";#	c #3B2E1C",
">#	c #0B151B",
",#	c #030707",
"'#	c #3B3319",
")#	c #BD914F",
"!#	c #FFBA58",
"~#	c #FCA634",
"{#	c #F8AF51",
"]#	c #FDDAB1",
"^#	c #FFF0E3",
"/#	c #FFF0E2",
"(#	c #FFEDD3",
"_#	c #FFE5B9",
":#	c #BFA47C",
"<#	c #3C3427",
"[#	c #090E12",
"}#	c #132A35",
"|#	c #0E232D",
"1#	c #03090A",
"2#	c #3C3823",
"3#	c #BFA06E",
"4#	c #FFCD80",
"5#	c #FCB656",
"6#	c #F8BA68",
"7#	c #FDDDB8",
"8#	c #FFEFE2",
"9#	c #FFE5B8",
"0#	c #BFA37B",
"a#	c #3C3326",
"b#	c #090E11",
"c#	c #153140",
"d#	c #112A37",
"e#	c #040A0D",
"f#	c #3C3A28",
"g#	c #BFA77E",
"h#	c #FFD594",
"i#	c #FCBE66",
"j#	c #F8C073",
"k#	c #FDDFBB",
"l#	c #FFEFE1",
"m#	c #FFECD2",
"n#	c #FFE4B6",
"o#	c #BFA379",
"p#	c #030608",
"q#	c #15313F",
"r#	c #BFA67D",
"s#	c #FFD593",
"t#	c #04080C",
"u#	c #040E0F",
"v#	c #423E2E",
"w#	c #C1A77E",
"x#	c #FFD491",
"y#	c #FCBD64",
"z#	c #F8BF71",
"A#	c #FFE4B7",
"B#	c #BFA37A",
"C#	c #112B37",
"D#	c #132B38",
"E#	c #111618",
"F#	c #4F483A",
"G#	c #C5AA82",
"H#	c #FFD390",
"I#	c #FBBC63",
"J#	c #F8BF70",
"K#	c #FFEDD4",
"L#	c #12252F",
"M#	c #181B1D",
"N#	c #554E44",
"O#	c #C7B08F",
"P#	c #FFDAA1",
"Q#	c #FDC677",
"R#	c #FAC781",
"S#	c #FDE2C1",
"T#	c #FFEFDF",
"U#	c #FFECD7",
"V#	c #FFE6C2",
"W#	c #FFDBA3",
"X#	c #BD9B6A",
"Y#	c #3C3121",
"Z#	c #0F242E",
"`#	c #0F191E",
" $	c #17191B",
".$	c #55504B",
"+$	c #C7B7A5",
"@$	c #FFE7C3",
"#$	c #FFD89F",
"$$	c #FDD7A1",
"%$	c #FEE7CC",
"&$	c #FFE4C0",
"*$	c #FFC87A",
"=$	c #B98B4A",
"-$	c #3A2C17",
";$	c #0B161C",
">$	c #0E1315",
",$	c #17181A",
"'$	c #55514E",
")$	c #C7BBB0",
"!$	c #FFF0D9",
"~$	c #FFE6C1",
"{$	c #FFE2BA",
"]$	c #FFE7CA",
"^$	c #FFE6C7",
"/$	c #FFDEB0",
"($	c #FFD28F",
"_$	c #FEBF66",
":$	c #B8843B",
"<$	c #0E1316",
"[$	c #C7BAAF",
"}$	c #FFF2E0",
"|$	c #FFEED8",
"1$	c #FFDEAF",
"2$	c #FFDCA8",
"3$	c #FEC067",
"4$	c #B8843C",
"5$	c #101313",
"6$	c #4F4C47",
"7$	c #C6BAAD",
"8$	c #FFF3E4",
"9$	c #FFE9D1",
"0$	c #FFDFB1",
"a$	c #FFDAA3",
"b$	c #FFDBA6",
"c$	c #FEBA5C",
"d$	c #B87E30",
"e$	c #3A280E",
"f$	c #42433A",
"g$	c #C3B8AA",
"h$	c #FFF7E7",
"i$	c #FFE9D0",
"j$	c #FFDAA4",
"k$	c #FFDCA7",
"l$	c #FFCE87",
"m$	c #FEAE45",
"n$	c #B87318",
"o$	c #3A2407",
"p$	c #353730",
"q$	c #9F978B",
"r$	c #DDCFC3",
"s$	c #F5E6D8",
"t$	c #FFEBD2",
"u$	c #FFE0B4",
"v$	c #FFD9A1",
"w$	c #FED498",
"x$	c #FFC677",
"y$	c #FDAC40",
"z$	c #B8731A",
"A$	c #212423",
"B$	c #4F4D49",
"C$	c #89817C",
"D$	c #D8CBC0",
"E$	c #FFEED6",
"F$	c #FFE2B7",
"G$	c #FED396",
"H$	c #FAC476",
"I$	c #FBBA5E",
"J$	c #FCB34E",
"K$	c #B88032",
"L$	c #3A2810",
"M$	c #11161A",
"N$	c #1E1F21",
"O$	c #5B5652",
"P$	c #C9B9A8",
"Q$	c #FFE9C7",
"R$	c #FBC67C",
"S$	c #F7B354",
"T$	c #FAAD42",
"U$	c #FFB145",
"V$	c #BA8234",
"W$	c #3A2910",
"X$	c #181A1C",
"Y$	c #564F46",
"Z$	c #C7B191",
"`$	c #FFDCA5",
" %	c #FDC87C",
".%	c #F6A333",
"+%	c #FB9E24",
"@%	c #FFA227",
"#%	c #BB771D",
"$%	c #3A2509",
"%%	c #0F1415",
"&%	c #4E4535",
"*%	c #C5A473",
"=%	c #FFD085",
"-%	c #FFBF64",
";%	c #FAAC42",
">%	c #EC8E14",
",%	c #CD7B12",
"'%	c #90570E",
")%	c #311E09",
"!%	c #030B09",
"~%	c #40371E",
"{%	c #BF924F",
"]%	c #FFC265",
"^%	c #FFBB5A",
"/%	c #FEB044",
"(%	c #FFA226",
"_%	c #CC7A12",
":%	c #693F09",
"<%	c #2D1C08",
"[%	c #141210",
"}%	c #312912",
"|%	c #90692E",
"1%	c #BB8233",
"2%	c #BC771D",
"3%	c #88520C",
"4%	c #271703",
"5%	c #171612",
"6%	c #312512",
"7%	c #3B2910",
"8%	c #3B2609",
"9%	c #2A1A04",
"0%	c #0B0701",
"                                                                      . + @ @ # .                                               ",
"                                                                  $ % & * = - ; > , '                                           ",
"                                                                  ) ! ~ { ] ^ / ( _ :                                           ",
"                                                                  < ! [ } | 1 2 3 4 5                                           ",
"                                                                  6 7 8 9 0 a b 3 4 5                                           ",
"                                                                  c d e f g h i j _ :                                           ",
"                                                                  k l m n o p q r , '                                           ",
"                                                              s t u v w x y z # A                                               ",
"                                                              ) B C D E F G H # A                                               ",
"                                                              < I J K L M N O # A                                               ",
"                                                              P Q R S T U V W # A                                               ",
"                                                              X Y Z `  ...+.@.#.$., '                                           ",
"                                                              %.&.*.=.-.;.>.,./ ( _ :                                           ",
"                                                              '.).!.~.{.].^./.(._.4 5                                           ",
"                                                              A :.<.[.}.|.1.2.3.3 # 5                                           ",
"                                                          4.5.6.7.8.9.0.a.b.c.d.e.# 5                                           ",
"                                                          X f.g.h.i.j.k.l.m.n.o.e.4 5                                           ",
"                                                          p.q.r.s.t.u.v.w.x.y.z.A._ :                                           ",
"                                                          A B.C.D.E.F.G.H.I.J.K.L., '                                           ",
"                                                          A # M.N.O.P.Q.R.S.T.U.,                                               ",
"                                                          A # V.W.X.Y.Z.`. +.+'.                                                ",
"                                                      ' , ++@+#+$+%+&+*+=+-+;+, c                                               ",
"                                                      : _ j i >+,+'+)+!+~+{+]+_ :                                               ",
"                                                      5 4 ^+/+(+_+:+<+[+}+|+j _ :                                               ",
"                                                      5 # 1+2+3+4+5+6+7+8+9+r : '                                               ",
"                                                      A # 0+a+b+c+d+e+f+g+# A                                                   ",
"                                                      A # h+i+j+k+l+m+n+o+4 A                                                   ",
"                                    p+p+      s q+r+s+t+u+v+w+x+y+z+A+B+C+_ :                                                   ",
"                                    c c       D+E+F+G+H+I+J+K+L+M+N+O+P+L., '                                                   ",
"                                  Q+R+S+T+c P U+C V+W+X+Y+Z+`+ @J+.@+@_ ,                                                       ",
"                              p+c R+@@@@#@$@%@&@*@=@-@;@>@,@'@)@!@~@{@, p+                                                      ",
"                              p+c S+@@]@^@/@(@_@:@<@[@}@|@1@2@3@4@# A                                                           ",
"                                  T+#@^@5@6@7@8@9@0@a@b@c@d@e@f@g@# h@                                                          ",
"                                  c i@j@k@l@m@n@o@p@q@r@s@t@u@v@w@4 x@                                                          ",
"                                  c p.y@k@z@A@B@C@D@E@F@G@H@I@J@K@# 5                                                           ",
"                                  c c L@M@N@O@P@Q@R@S@T@U@V@W@X@Y@# 5   p+p+                                                    ",
"                                    c Z@`@ #.#+#@###$#%#&#*#=#-#;## 5   c c                                                     ",
"                                  T+S+>#,#'#)#!#~#{#]#^#/#(#_#:#<## [#T+S+R+Q+                                                  ",
"                              p+c S+}#|#1#2#3#4#5#6#7#/#8#(#9#0#a#4 b##@@@@@R+c p+                                              ",
"                              c c y@c#d#e#f#g#h#i#j#k#/#l#m#n#o#a#p#>#^@]@@@S+c p+                                              ",
"                              c c y@q#d#e#f#r#s#i#j#k#/#l#m#n#o#a#t#6@5@^@#@T+                                                  ",
"                              c c y@q#d#u#v#w#x#y#z#k#/#/#(#A#B#a#m@C#k@j@i@c                                                   ",
"                              c c y@c#D#E#F#G#H#I#J#k#^#/#K#9#0#a#m@C#k@y@p.c                                                   ",
"                              p+c S+}#L#M#N#O#P#Q#R#S#T#U#V#W#X#Y#t#Z#}#S+c p+                                                  ",
"                                  T+S+`# $.$+$@$#$$$%$U#&$1.*$=$-$p#;$S+T+                                                      ",
"                                    c >$,$'$)$!$~${$]$^$/$($_$:$_.# [#c                                                         ",
"                                    p+<$,$'$[$}$|$]${$1$2$H#3$4$_.# x@p+                                                        ",
"                                      p.5$6$7$..8$9$0$a$b$($c$d$e$# 5                                                           ",
"                                      5 B.f$g$h$8$i$0$j$k$l$m$n$o$# 5                                                           ",
"                                      : _ p$q$r$s$t$u$v$w$x$y$z$o$# 5                                                           ",
"                                      ' , A$B$C$D$E$F$G$H$I$J$K$L$# 5                                                           ",
"                                          M$N$O$P$Q$j$R$S$T$U$V$W$# 5                                                           ",
"                                          s X$Y$Z$`$ %S$.%+%@%#%$%4 5                                                           ",
"                                          p.%%&%*%=%-%;%+%>%,%'%)%_ :                                                           ",
"                                          A !%~%{%]%^%/%(%_%:%<%[%, '                                                           ",
"                                          : U.}%|%o.n+1%2%3%4%# A                                                               ",
"                                          ' , 5%6%e.e.7%8%9%0%4 A                                                               ",
"                                              , _ 4 # # # # 4 _ :                                                               ",
"                                              ' : 5 5 5 5 5 5 : '                                                               ",
"                                                                                                                                ",
"                                                                                                                                ",
"                                                                                                                                ",
"                                                                                                                                ",
"                                                                                                                                "};
