/* XPM */
static char * key_xpm[] = {
"64 64 184 2",
"  	c #000000",
". 	c #FAFA82",
"+ 	c #F3D573",
"@ 	c #F7EA7C",
"# 	c #FBFF84",
"$ 	c #F4D975",
"% 	c #E6975B",
"& 	c #FBFD83",
"* 	c #FAFC83",
"= 	c #F0C96F",
"- 	c #F6E67A",
"; 	c #FCFF85",
"> 	c #FBFE84",
", 	c #F4DB76",
"' 	c #E79A5C",
") 	c #E0774E",
"! 	c #DF734D",
"~ 	c #E0784F",
"{ 	c #E1794F",
"] 	c #E17B50",
"^ 	c #EBAC63",
"/ 	c #EDBA69",
"( 	c #EFC26C",
"_ 	c #F3D574",
": 	c #EEBB69",
"< 	c #F2D072",
"[ 	c #F5E078",
"} 	c #FAFA82",
"| 	c #FAFA82",
"1 	c #FAFA82",
"2 	c #FAFA82",
"3 	c #FAFA82",
"4 	c #FAFA82",
"5 	c #FAFA82",
"6 	c #FAFA82",
"7 	c #FAFA82",
"8 	c #FAFA82",
"9 	c #FAFA82",
"0 	c #FAFA82",
"a 	c #FAFA82",
"b 	c #FAFA82",
"c 	c #FAFA82",
"d 	c #FAFA82",
"e 	c #FAFA82",
"f 	c #FAFA82",
"g 	c #FAFA82",
"h 	c #FAFA82",
"i 	c #FAFA82",
"j 	c #FAFA82",
"k 	c #FAFB82",
"l 	c #FBFF84",
"m 	c #FAFA82",
"n 	c #FAFA82",
"o 	c #FAFB82",
"p 	c #FCFF86",
"q 	c #FAFA82",
"r 	c #FAFA82",
"s 	c #F8F07E",
"t 	c #EFC26C",
"u 	c #E58F58",
"v 	c #F3D875",
"w 	c #FBFF84",
"x 	c #F4D975",
"y 	c #E6965B",
"z 	c #E7995C",
"A 	c #F5DF78",
"B 	c #FCFF86",
"C 	c #FCFF85",
"D 	c #FAFC83",
"E 	c #FBFF84",
"F 	c #FCFF85",
"G 	c #FCFF85",
"H 	c #F5E078",
"I 	c #E89E5E",
"J 	c #E6965B",
"K 	c #F4D975",
"L 	c #FBFF84",
"M 	c #E6975B",
"N 	c #E7985B",
"O 	c #F4DC76",
"P 	c #FBFF85",
"Q 	c #FBFE84",
"R 	c #FBFD83",
"S 	c #FAFB82",
"T 	c #FAFB82",
"U 	c #FBFD83",
"V 	c #FBFE84",
"W 	c #FBFE84",
"X 	c #F4DA75",
"Y 	c #F3D975",
"Z 	c #E7975B",
"` 	c #E6955A",
" .	c #F4DB76",
"..	c #E79A5C",
"+.	c #E0774E",
"@.	c #E0764E",
"#.	c #E0754D",
"$.	c #DF734D",
"%.	c #E89E5E",
"&.	c #F5E178",
"*.	c #FBFE84",
"=.	c #FBFF84",
"-.	c #F4DB76",
";.	c #EAA761",
">.	c #F5E278",
",.	c #E89F5E",
"'.	c #DF724C",
").	c #DE6C4A",
"!.	c #F4DB76",
"~.	c #E79A5C",
"{.	c #E0764E",
"].	c #DF734D",
"^.	c #DE6B4A",
"/.	c #DD6547",
"(.	c #EFC16C",
"_.	c #F8F17E",
":.	c #FAFC83",
"<.	c #FBFD83",
"[.	c #F6E67A",
"}.	c #F4DA76",
"|.	c #F8F17E",
"1.	c #EFC06B",
"2.	c #DC6045",
"3.	c #D7493C",
"4.	c #FAFB82",
"5.	c #FAFA82",
"6.	c #FAF982",
"7.	c #FBFE84",
"8.	c #FBFD83",
"9.	c #FAFB82",
"0.	c #FCFF86",
"a.	c #FBFF84",
"b.	c #FAFB82",
"c.	c #FAFA82",
"d.	c #FAFA82",
"e.	c #FAFC83",
"f.	c #FAFC83",
"g.	c #FBFF84",
"h.	c #FAFA82",
"i.	c #FAFA82",
"j.	c #FAFA82",
"k.	c #FAFA82",
"l.	c #FAFA82",
"m.	c #FAFA82",
"n.	c #FAFA82",
"o.	c #FAFA82",
"p.	c #FAFA82",
"q.	c #FAFA82",
"r.	c #FAFA82",
"s.	c #FAFB82",
"t.	c #FAFB83",
"u.	c #FAFC83",
"v.	c #FBFD83",
"w.	c #F3D975",
"x.	c #E6965B",
"y.	c #E6975B",
"z.	c #F4D975",
"A.	c #FBFF84",
"B.	c #F4DA75",
"C.	c #E7975B",
"D.	c #E58F58",
"E.	c #EFC26C",
"F.	c #F4DD77",
"G.	c #F4DC76",
"H.	c #F5E279",
"I.	c #F8F27F",
"J.	c #F5E178",
"K.	c #F5E278",
"L.	c #F9F37F",
"M.	c #F4DB76",
"N.	c #E7995C",
"O.	c #E28052",
"P.	c #E59159",
"Q.	c #E79B5D",
"R.	c #E7985B",
"S.	c #ECB165",
"T.	c #FBFE83",
"U.	c #EBAE64",
"V.	c #EBAF64",
"W.	c #F6E379",
"X.	c #F6E479",
"Y.	c #ECB266",
"Z.	c #F5E379",
"`.	c #2C2C2C",
"                                                                                                                                ",
"                                                                                                                                ",
"                                                                                                                                ",
"                                                                                                                                ",
"                                                                                                                                ",
"                                                                                                                                ",
"                                                                                                                                ",
"                                                                                                                                ",
"                                                                                                                                ",
"                                                                                                                                ",
"                                                                                                                                ",
"                                                                                                                                ",
"                                                                                                                                ",
"                                                                                                                                ",
"                                                                                                                                ",
"                                                                                                                                ",
"                                                                                                                                ",
"                                                                                                                                ",
"                                                                                                                                ",
"                                      `.`.! ! `.`.                                                                              ",
"                                      `./ F.F./ `.                                                                              ",
"                                  `.`.,.- . . - ,.`.`.                                                                          ",
"                                  `./ Z.6.. . 6.Z./ `.                                                                          ",
"                              `.`.,.Z.6.Z.Y Y Z.6.Z.,.`.`.                                                                      ",
"                              `./ - 6.Z.,.).).,.Z.6.- / `.                                                                      ",
"                              ! Y . . Y !     ! Y . . Y !                                                                       ",
"                              ! Y . . Y !     ! Y . . Y !                                                                       ",
"                              ! Y . . Y !     ! Y . k Y ~ `.2.! ! 2.`.`./.! ! ! ! ! ! ! ! ! ! ! ! ! ! 2.`.                      ",
"                              ! Y . . Y !     ! Y t.* Y u O./ F.F./ O.O./ F.F.F.F.Y Y Y Y Y Y Y Y Y F./ 2.                      ",
"                              ! Y . . Y !     ! Y * & Y y % $ # # X Z u ( F.O X X H.I.k k I.&.>.L.L.H.( 2.                      ",
"                              ! Y . . Y !     ! Y * & Y y % $ # # , z O.P.Q.Q.z N S.H.T.T.&.U.V.W.X.Y.O.`.                      ",
"                              ! Y . . Y ! `.  ! Y t.* Y u O./ F.F./ O././././.2.2.u Y 6.Z.( ,.U.Z.O P.3.`.                      ",
"                              ! Y . . Y ~ `.`.! Y . k Y ~ `.).~ ! 2.`.`.`.`.`.`.`.~ Y Z.Q.P.( >.L.Y ~ `.`.                      ",
"                              ! Y . . Y ~ `.`.! Y . . Y ! `.`.`.`.                ! F.Y ).).Y * k Y !                           ",
"                              ! Y . . Y ! `.`.! Y . . Y ~ `.`.`.                  ~ F.Y ! ).Y t.. Y !                           ",
"                              `./ - 6.Z.,.! ! ,.Z.6.- / ).`.`.                    /./ / `.! Y . . Y !                           ",
"                              `.`.,.Z.6.Z.Y Y Z.6.Z.,.`.`.`.`.                    `.2.`.`.! Y . . Y !                           ",
"                                  `./ Z.6.. . 6.Z./ `.`.`.`.`.          `.`.              `./ F.F./ `.                          ",
"                                  `.`.,.- . . - ,.`.`.`.`.`.          `.`.`.`.            `.`.! ! `.`.                          ",
"                                  `.`.`./ F.F./ `.`.`.`.`.          `.`.`.`.`.                                                  ",
"                                  `.`.`.2.~ ~ ).`.`.`.`.`.        `.`.`.`.`.                                                    ",
"                                  `.`.`.`.`.`.`.`.`.`.`.`.        `.`.`.`.                                                      ",
"                                  `.`.`.`.`.`.`.`.`.`.`.`.        `.`.`.`.                                                      ",
"                                  `.`.`.`.`.`.`.`.`.`.`.`.        `.`.`.`.                                                      ",
"                                    `.`.  `.`.`.`.  `.`.            `.`.                                                        ",
"                                          `.`.`.`.                                                                              ",
"                                            `.`.                                                                                ",
"                                                                                                                                ",
"                                                                                                                                ",
"                                                                                                                                ",
"                                                                                                                                ",
"                                                                                                                                ",
"                                                                                                                                ",
"                                                                                                                                ",
"                                                                                                                                ",
"                                                                                                                                ",
"                                                                                                                                ",
"                                                                                                                                ",
"                                                                                                                                ",
"                                                                                                                                ",
"                                                                                                                                ",
"                                                                                                                                ",
"                                                                                                                                ",
"                                                                                                                                "};
