/* XPM */
static char * mort_xpm[] = {
"64 64 340 2",
"  	c #0C1317",
". 	c #121728",
"+ 	c #1E2143",
"@ 	c #22254D",
"# 	c #1D2041",
"$ 	c #33346F",
"% 	c #3B3B80",
"& 	c #3A3B7F",
"* 	c #111624",
"= 	c #1C2040",
"- 	c #2D2E63",
"; 	c #3D3D84",
"> 	c #42428F",
", 	c #32336F",
"' 	c #41418D",
") 	c #2D2E64",
"! 	c #3E3E86",
"~ 	c #434391",
"{ 	c #434390",
"] 	c #3A3B80",
"^ 	c #22244B",
"/ 	c #3D3D85",
"( 	c #434392",
"_ 	c #424290",
": 	c #21244A",
"< 	c #23254E",
"[ 	c #3B3C82",
"} 	c #40408A",
"| 	c #393A7A",
"1 	c #343671",
"2 	c #383A79",
"3 	c #3F4089",
"4 	c #3C3C83",
"5 	c #2C2E62",
"6 	c #23264F",
"7 	c #3D3C84",
"8 	c #393B7C",
"9 	c #24284C",
"0 	c #171D30",
"a 	c #23274B",
"b 	c #393A7B",
"c 	c #444493",
"d 	c #41418C",
"e 	c #13182A",
"f 	c #1D2142",
"g 	c #282B5A",
"h 	c #32346D",
"i 	c #2B2E5C",
"j 	c #151B2C",
"k 	c #091011",
"l 	c #151B2A",
"m 	c #2A2E5B",
"n 	c #1F2246",
"o 	c #343472",
"p 	c #32346C",
"q 	c #212546",
"r 	c #151B2B",
"s 	c #0E151C",
"t 	c #0B1214",
"u 	c #0E151B",
"v 	c #0B454B",
"w 	c #0A717A",
"x 	c #242651",
"y 	c #353773",
"z 	c #191E34",
"A 	c #0A1112",
"B 	c #0B1215",
"C 	c #181D32",
"D 	c #353671",
"E 	c #3A3A7E",
"F 	c #0A737C",
"G 	c #05BCCB",
"H 	c #0A1113",
"I 	c #181E33",
"J 	c #353672",
"K 	c #09818C",
"L 	c #02D8E8",
"M 	c #02D8E9",
"N 	c #09848F",
"O 	c #242650",
"P 	c #3C3B82",
"Q 	c #1A1F35",
"R 	c #353772",
"S 	c #09808A",
"T 	c #0B3F45",
"U 	c #0A6D76",
"V 	c #079BA8",
"W 	c #04C5D4",
"X 	c #05BCCA",
"Y 	c #0A727B",
"Z 	c #21244B",
"` 	c #191E33",
" .	c #09808B",
"..	c #02D6E7",
"+.	c #097F89",
"@.	c #3B3B81",
"#.	c #0F151D",
"$.	c #0C1316",
"%.	c #03D6E6",
"&.	c #3A3A7F",
"*.	c #404089",
"=.	c #2B2E5B",
"-.	c #161B2D",
";.	c #0B1216",
">.	c #0B3D42",
",.	c #0A6A73",
"'.	c #07A6B2",
").	c #02DCED",
"!.	c #03D4E4",
"~.	c #444494",
"{.	c #363874",
"].	c #191F35",
"^.	c #0A6F78",
"/.	c #05B9C7",
"(.	c #02DDEE",
"_.	c #00EBFC",
":.	c #03D3E3",
"<.	c #363773",
"[.	c #191F34",
"}.	c #00EDFF",
"|.	c #03D1E1",
"1.	c #097C86",
"2.	c #091111",
"3.	c #097A84",
"4.	c #091010",
"5.	c #02D9EA",
"6.	c #07A4B0",
"7.	c #0B3C42",
"8.	c #141A29",
"9.	c #0D141A",
"0.	c #01E8FA",
"a.	c #02DBEC",
"b.	c #0A6E78",
"c.	c #2A2D5A",
"d.	c #141A2A",
"e.	c #181E32",
"f.	c #03D4E3",
"g.	c #097E86",
"h.	c #211316",
"i.	c #1F1838",
"j.	c #181D31",
"k.	c #343670",
"l.	c #03D4E1",
"m.	c #0A7E80",
"n.	c #22112F",
"o.	c #342E6B",
"p.	c #097B85",
"q.	c #03DAE8",
"r.	c #09A6AC",
"s.	c #1C5C80",
"t.	c #394689",
"u.	c #42418E",
"v.	c #42418F",
"w.	c #097D87",
"x.	c #01E9F8",
"y.	c #04DDE9",
"z.	c #14ABCB",
"A.	c #3560A0",
"B.	c #433F8D",
"C.	c #43408E",
"D.	c #171C2F",
"E.	c #00EFFF",
"F.	c #00F1FF",
"G.	c #0FC4E5",
"H.	c #306CAC",
"I.	c #413E8E",
"J.	c #423F8E",
"K.	c #383978",
"L.	c #222648",
"M.	c #2E6CAD",
"N.	c #403E8F",
"O.	c #3F3F88",
"P.	c #0A7C81",
"Q.	c #03D2E1",
"R.	c #00F0FF",
"S.	c #00F3FF",
"T.	c #19C6DE",
"U.	c #556E90",
"V.	c #674071",
"W.	c #4F4084",
"X.	c #414290",
"Y.	c #0A7E81",
"Z.	c #00F4FF",
"`.	c #30C9CD",
" +	c #A17357",
".+	c #B44437",
"++	c #684271",
"@+	c #3F4292",
"#+	c #404291",
"$+	c #401316",
"%+	c #721C14",
"&+	c #497565",
"*+	c #0ED1DD",
"=+	c #07E8F8",
"-+	c #28D4D7",
";+	c #72A88E",
">+	c #DB6A26",
",+	c #DC481A",
"'+	c #744368",
")+	c #3D4292",
"!+	c #3F4291",
"~+	c #772014",
"{+	c #C7370C",
"]+	c #A27549",
"^+	c #29CED1",
"/+	c #24D6DB",
"(+	c #8C9573",
"_+	c #DA6827",
":+	c #FD5504",
"<+	c #D84A1D",
"[+	c #72446A",
"}+	c #892713",
"|+	c #E44206",
"1+	c #D26B2E",
"2+	c #6DA992",
"3+	c #6CAA93",
"4+	c #D5682A",
"5+	c #FF4600",
"6+	c #E44713",
"7+	c #AD473E",
"8+	c #644475",
"9+	c #892913",
"0+	c #E34407",
"a+	c #F4560C",
"b+	c #D36A2C",
"c+	c #D5692A",
"d+	c #F95407",
"e+	c #95444F",
"f+	c #604277",
"g+	c #4A4288",
"h+	c #6D281A",
"i+	c #B94120",
"j+	c #D54E22",
"k+	c #DE5620",
"l+	c #E35B1E",
"m+	c #E25D20",
"n+	c #B95B3F",
"o+	c #6C587A",
"p+	c #435097",
"q+	c #414792",
"r+	c #38243A",
"s+	c #613B5F",
"t+	c #79526C",
"u+	c #8E6F6D",
"v+	c #997F6D",
"w+	c #987F6E",
"x+	c #898079",
"y+	c #6F808E",
"z+	c #596F96",
"A+	c #495092",
"B+	c #41418F",
"C+	c #1F234E",
"D+	c #353982",
"E+	c #465090",
"F+	c #586E8A",
"G+	c #67868B",
"H+	c #6D8F95",
"I+	c #7B8E8D",
"J+	c #8F8678",
"K+	c #837176",
"L+	c #575187",
"M+	c #404190",
"N+	c #21254F",
"O+	c #383A82",
"P+	c #3C4086",
"Q+	c #354266",
"R+	c #49676C",
"S+	c #66888E",
"T+	c #8D8579",
"U+	c #C66B3E",
"V+	c #BB563B",
"W+	c #694873",
"X+	c #3E4192",
"Y+	c #23254F",
"Z+	c #3B3C81",
"`+	c #3A397F",
" @	c #1C1D47",
".@	c #2B4646",
"+@	c #557479",
"@@	c #95725F",
"#@	c #E65817",
"$@	c #D7481D",
"%@	c #734469",
"&@	c #1F214A",
"*@	c #0D151A",
"=@	c #28474C",
"-@	c #8B492D",
";@	c #E94B09",
">@	c #D5491F",
",@	c #73446A",
"'@	c #1F2245",
")@	c #333471",
"!@	c #363777",
"~@	c #2B2C5F",
"{@	c #171E44",
"]@	c #0C1222",
"^@	c #6A2013",
"/@	c #C33B0C",
"(@	c #B94528",
"_@	c #674371",
":@	c #3D418F",
"<@	c #393D85",
"[@	c #3C3C82",
"}@	c #40408B",
"|@	c #121829",
"1@	c #2A2C5E",
"2@	c #373778",
"3@	c #333472",
"4@	c #191E42",
"5@	c #0C1216",
"6@	c #642215",
"7@	c #663239",
"8@	c #4A3F7C",
"9@	c #3C3E86",
"0@	c #2B2E63",
"a@	c #2B2D60",
"b@	c #343572",
"c@	c #1F244D",
"d@	c #19234F",
"e@	c #242A60",
"f@	c #343777",
"g@	c #33336F",
"h@	c #1B1F3E",
"i@	c #1F2247",
"j@	c #393A7D",
"k@	c #121727",
"l@	c #383C83",
"m@	c #333678",
"n@	c #282B5D",
"o@	c #1C1F3E",
"p@	c #0E151D",
"q@	c #202348",
"r@	c #42428E",
"s@	c #3D3E85",
"t@	c #3C3D83",
"u@	c #2D2F64",
"v@	c #333470",
"w@	c #1D2042",
"x@	c #13182B",
"y@	c #1E2144",
"                                                                                                                                ",
"                                                                                                                                ",
"                                                                                                                                ",
"                                                              . + @ @ @ @ + .                                                   ",
"                                                              # $ % & & % $ #                                                   ",
"                                                          * = - ; > > > > ; - # .                                               ",
"                                                          = , ; ' > > > > ' ; $ +                                               ",
"                                                      . # ) ! ~ ~ { > > > > > ] ^                                               ",
"                                                      + $ / > ( ( ~ _ > > > > & :                                               ",
"                                                      < [ } | 1 1 2 3 ~ _ > > 4 5 # .                                           ",
"                                                      6 7 8 9 0 0 a b c ~ > > d ; $ +                                           ",
"                                                  e f g h i j k k l m b 3 _ > > > % @                                           ",
"                                                  n o p q r s t t u l a 2 ~ { > > & @                                           ",
"                              v w w v             x 4 y z A t     B A C D ( ~ > > E @                                           ",
"                              F G G F             x 4 y z H B     B H I J ( ~ > > E @                                           ",
"                              K L M N             O P y Q t B     B t z R ( ~ > > E @                                           ",
"                              S L M N             O P y Q t B     B t z R ( ~ > > E @                                           ",
"                          T U V W X Y             O P R z H B     B t z R ( ~ > > E Z                                           ",
"                          Y X W V U T             x P R ` A B     B t z R ( ~ > > E :                                           ",
"                           .....+.                < @.| 9 r #.$.  B H I J ( ~ > > 4 5 = *                                       ",
"                          +.%.%.S                 Z &.*.b =.-.B ;.B A C D ( ~ > > d ; , =                                       ",
"                      >.,.'.).!. .            * = 5 4 ~ ~.{.].t B #.r a 2 ~ { > > > > ; - # .                                   ",
"                      ^./.(._.:.+.            = , ; d ~ c <.[.H H -.=.b 3 _ > > > > > ' ; $ +                                   ",
"                      S !.}.}.|.1.        . # - ; > > ~ ( J I 2.A ].{.~.~ > > > > > > > > ] ^                                   ",
"                      S :.}.}.|.3.        + $ ; ' > > ~ ( D C 4.A [.<.c ~ > > > > > > > > & :                                   ",
"                      S :.}.}.5.6.,.7.    ^ ] > > > > { ~ 2 a 8.9.` J ( ~ > > > > > > > > 4 5 # .                               ",
"                      S !.}.}.0.a./.b.    : & > > > > > _ 3 b c.d.e.1 ( ~ > > > > > > > > d ; $ +                               ",
"                      ^./.a.0.}.}.f.g.h.i.5 4 > > > > > > ~ ~.R e.j.k.( ~ > > > > > > > > > > ] ^                               ",
"                      >.,.6.5.}.}.l.m.n.o.; d > > > > > > ~ c R C j.k.( ~ > > > > > > > > > > & :                               ",
"                          p.:.}.}.q.r.s.t.u.v.> > > > > > ~ ( k.0 0 k.( ~ > > > > > > > > > > 4 5 # .                           ",
"                          w.!.}.}.x.y.z.A.B.C.> > > > > > ~ ( k.D.D.k.( ~ > > > > > > > > > > d ; $ +                           ",
"                          ^./.a.0.E.F.G.H.I.J.> > > > > > { ~ K.L.L.K.~ { > > > > > > > > > > > > % @                           ",
"                          >.,.6.5.E.F.G.M.N.J.> > > > > > > _ O.K.K.O._ > > > > > > > > > > > > > & @                           ",
"                              P.Q.R.S.T.U.V.W.X.X.> > > > > > _ ~ ~ _ > > > > > > > > > > > > > > E @                           ",
"                              Y.Q.R.Z.`. +.+++@+#+> > > > > > > { { > > > > > > > > > > > > > > > E @                           ",
"                          $+%+&+*+=+-+;+>+,+'+)+!+> > > > > > > > > > > > > > > > > > > > > > > > E @                           ",
"                          ~+{+]+^+/+(+_+:+<+[+)+!+> > > > > > > > > > > > > > > > > > > > > > > > E @                           ",
"                          }+|+1+2+3+4+5+6+7+8+@+#+> > > > > > > > > > > > > > > > > > > > > > > > E @                           ",
"                          9+0+a+b+c+d+6+e+f+g+X.X.> > > > > > > > > > > > > > > > > > > > > > > > E @                           ",
"                          h+i+j+k+l+m+n+o+p+q+> > > > > > > > > > > > > > > > > > > > > > > > > > E @                           ",
"                          r+s+t+u+v+w+x+y+z+A+B+v.> > > > > > > > > > > > > > > > > > > > > > > > E @                           ",
"                          C+D+E+F+G+H+I+J+K+L+M+B+> > > > > > > > > > > > > > > > > > > > > > > > E @                           ",
"                          N+O+P+Q+R+S+T+U+V+W+X+#+> > > > > > > > > > > > > > > > > > > > > > > > E @                           ",
"                          Y+Z+`+ @.@+@@@#@$@%@)+!+> > > > > > > > > > > > > > > > > > > > > > > > E @                           ",
"                          6 [ @.&@*@=@-@;@>@,@)+!+> > > > > > > > > > > > > > > > > > > > > > > > E @                           ",
"                          '@)@!@~@{@]@^@/@(@_@:@<@[@}@> > > > > > > > > > > > > > > > > > > > > > E @                           ",
"                          |@# 1@2@3@4@5@6@7@8@9@0@a@[@> > > > > > > > > > > > > > > > > > > > > > E @                           ",
"                              + b@2@~@c@d@e@f@g@h@i@j@> > > > > > > > > > > > > > > > > > > > > > E @                           ",
"                              k@+ 1@!@[ l@m@n@o@p@: E > > > > > > > > > > > > > > > > > > > > > > E @                           ",
"                                  # )@[@[@)@#     @ & > > > > > > > > > > > > > > > > > > > > > > & @                           ",
"                                  |@'@O O '@|@    @ % > > > > > > > > > > > > > > > > > > > > > > % @                           ",
"                                                  + $ ; d > > > > > > > > > > > > > > > > > > ' ; $ +                           ",
"                                                  . # 5 4 > > > > > > > > > > > > > > > > > > ; - # .                           ",
"                                                      : & > > > > > > > > > > > > > > > > d ; , =                               ",
"                                                      ^ ] > > > > > > > > > > > > > > > > 4 5 = *                               ",
"                                                      + $ ; d > > > > > > > > > > > > > > E :                                   ",
"                                                      . # 5 4 > > > > > > > > > > > > > > E Z                                   ",
"                                                          : E > > d 4 E E 4 d > > > > > > & @                                   ",
"                                                          Z E > > ; 5 q@q@5 ; > > > > > > % @                                   ",
"                                                          @ % r@s@, =     # $ ] & t@d ' / $ +                                   ",
"                                                          Y+Z+! u@= *     . + ^ : ) s@s@u@# .                                   ",
"                                                          '@)@v@w@                w@v@v@w@                                      ",
"                                                          x@y@+ |@                |@+ + |@                                      ",
"                                                                                                                                "};
