/* XPM */
static char * wall_xpm[] = {
"64 64 366 2",
"  	c #0C1317",
". 	c #0C1216",
"+ 	c #0C1215",
"@ 	c #0B1114",
"# 	c #0A1013",
"$ 	c #0C1A21",
"% 	c #122F3C",
"& 	c #15394A",
"* 	c #153949",
"= 	c #153849",
"- 	c #17394A",
"; 	c #173A4B",
"> 	c #14303D",
", 	c #0E1B22",
"' 	c #0B1115",
") 	c #0C1115",
"! 	c #0D1B21",
"~ 	c #112E3B",
"{ 	c #264155",
"] 	c #49516B",
"^ 	c #5C5976",
"/ 	c #5B5876",
"( 	c #5A5875",
"_ 	c #49506A",
": 	c #264053",
"< 	c #133748",
"[ 	c #143848",
"} 	c #0D1519",
"| 	c #0E1A20",
"1 	c #0F1C23",
"2 	c #0E1C23",
"3 	c #0D1B22",
"4 	c #121D24",
"5 	c #1A212A",
"6 	c #212A37",
"7 	c #25394B",
"8 	c #274155",
"9 	c #274054",
"0 	c #233E52",
"a 	c #1A3A4C",
"b 	c #16394A",
"c 	c #17394B",
"d 	c #153241",
"e 	c #11232C",
"f 	c #0E1C22",
"g 	c #13242E",
"h 	c #203747",
"i 	c #34475D",
"j 	c #4E536E",
"k 	c #5B5976",
"l 	c #5B5875",
"m 	c #4E526D",
"n 	c #33465C",
"o 	c #264054",
"p 	c #233F52",
"q 	c #1B3B4C",
"r 	c #11232D",
"s 	c #0E191F",
"t 	c #0C1519",
"u 	c #122834",
"v 	c #14303E",
"w 	c #132F3C",
"x 	c #122E3C",
"y 	c #1F3444",
"z 	c #3A4155",
"A 	c #484961",
"B 	c #494E68",
"C 	c #4A516B",
"D 	c #3D4A62",
"E 	c #223E51",
"F 	c #163747",
"G 	c #153240",
"H 	c #142F3D",
"I 	c #122E3B",
"J 	c #3C485F",
"K 	c #575773",
"L 	c #565672",
"M 	c #4D526D",
"N 	c #3D4B62",
"O 	c #163949",
"P 	c #122833",
"Q 	c #11242D",
"R 	c #153342",
"S 	c #173A4C",
"T 	c #163A4B",
"U 	c #1A3B4D",
"V 	c #223F52",
"W 	c #34475E",
"X 	c #4F546F",
"Y 	c #5D5A78",
"Z 	c #5C5977",
"` 	c #5D5977",
" .	c #4F536E",
"..	c #193A4B",
"+.	c #4B516C",
"@.	c #284155",
"#.	c #173B4C",
"$.	c #173848",
"%.	c #3D4B63",
"&.	c #585774",
"*.	c #585773",
"=.	c #4F536F",
"-.	c #4B516B",
";.	c #0F1C24",
">.	c #15313F",
",.	c #173B4D",
"'.	c #193A4C",
").	c #233E51",
"!.	c #35475D",
"~.	c #494E67",
"{.	c #13313F",
"].	c #153646",
"^.	c #3E4B63",
"/.	c #50546F",
"(.	c #212A36",
"_.	c #0F222B",
":.	c #14313F",
"<.	c #183B4D",
"[.	c #143241",
"}.	c #153647",
"|.	c #34465D",
"1.	c #254053",
"2.	c #30445A",
"3.	c #424D66",
"4.	c #50536E",
"5.	c #5B5977",
"6.	c #48475E",
"7.	c #1E222B",
"8.	c #0D1A20",
"9.	c #173849",
"0.	c #10232C",
"a.	c #133140",
"b.	c #414C65",
"c.	c #2F4459",
"d.	c #1F222B",
"e.	c #132F3D",
"f.	c #0E191E",
"g.	c #274156",
"h.	c #5D5A77",
"i.	c #243F52",
"j.	c #48506A",
"k.	c #3B4359",
"l.	c #1C2833",
"m.	c #0F222C",
"n.	c #153341",
"o.	c #0E181E",
"p.	c #0C1418",
"q.	c #213C4E",
"r.	c #183342",
"s.	c #173748",
"t.	c #0C1419",
"u.	c #32465B",
"v.	c #3C4A62",
"w.	c #213E50",
"x.	c #143748",
"y.	c #203D50",
"z.	c #18394A",
"A.	c #575774",
"B.	c #404C64",
"C.	c #2E4459",
"D.	c #223C4E",
"E.	c #32465C",
"F.	c #2D4358",
"G.	c #4B526C",
"H.	c #3B4358",
"I.	c #1B2732",
"J.	c #0E212A",
"K.	c #143240",
"L.	c #163849",
"M.	c #123747",
"N.	c #565470",
"O.	c #4C4B63",
"P.	c #3D445A",
"Q.	c #2C4054",
"R.	c #5C5A77",
"S.	c #4D4C64",
"T.	c #2E303E",
"U.	c #1A242E",
"V.	c #152B37",
"W.	c #1A3B4C",
"X.	c #18394B",
"Y.	c #2B2E3C",
"Z.	c #262C39",
"`.	c #575571",
" +	c #4D4C65",
".+	c #383B4E",
"++	c #143645",
"@+	c #12303E",
"#+	c #274154",
"$+	c #404C65",
"%+	c #4A506B",
"&+	c #4A506A",
"*+	c #4A516C",
"=+	c #5D5B78",
"-+	c #173342",
";+	c #153747",
">+	c #0F212A",
",+	c #13232D",
"'+	c #203748",
")+	c #35485F",
"!+	c #32455B",
"~+	c #253F53",
"{+	c #2D4155",
"]+	c #3E445A",
"^+	c #1B3B4D",
"/+	c #244053",
"(+	c #213748",
"_+	c #14242D",
":+	c #0D1E26",
"<+	c #102834",
"[+	c #3C4960",
"}+	c #585874",
"|+	c #3F4C64",
"1+	c #213E51",
"2+	c #183A4B",
"3+	c #505470",
"4+	c #35485E",
"5+	c #111D24",
"6+	c #233F53",
"7+	c #3E4961",
"8+	c #213848",
"9+	c #575673",
"0+	c #3B4A61",
"a+	c #585875",
"b+	c #0A1114",
"c+	c #515470",
"d+	c #102934",
"e+	c #1F3545",
"f+	c #3A4156",
"g+	c #47475D",
"h+	c #47475E",
"i+	c #1E232C",
"j+	c #081013",
"k+	c #0D1F27",
"l+	c #111C24",
"m+	c #1A2129",
"n+	c #1F232D",
"o+	c #1E222C",
"p+	c #1D222C",
"q+	c #080F12",
"r+	c #203848",
"s+	c #0D1A21",
"t+	c #143849",
"u+	c #4B4B63",
"v+	c #2D303E",
"w+	c #1D222B",
"x+	c #5A5876",
"y+	c #55546F",
"z+	c #4C4B64",
"A+	c #1E232D",
"B+	c #46475D",
"C+	c #16394B",
"D+	c #3C4B62",
"E+	c #5E5A77",
"F+	c #153848",
"G+	c #4C516C",
"H+	c #133544",
"I+	c #102F3D",
"J+	c #1F3646",
"K+	c #133747",
"L+	c #11303D",
"M+	c #0C2028",
"N+	c #11222C",
"O+	c #1A212B",
"P+	c #34465C",
"Q+	c #50536F",
"R+	c #414D65",
"S+	c #2F455B",
"T+	c #24394A",
"U+	c #202935",
"V+	c #163240",
"W+	c #0B1215",
"X+	c #121D25",
"Y+	c #4E536D",
"Z+	c #243F53",
"`+	c #4B4F68",
" @	c #494A62",
".@	c #3A4358",
"+@	c #203B4D",
"@@	c #5E5A78",
"#@	c #4C526D",
"$@	c #4C526C",
"%@	c #223F53",
"&@	c #284156",
"*@	c #1B3C4E",
"=@	c #484A61",
"-@	c #3E455B",
";@	c #2C4155",
">@	c #254054",
",@	c #233849",
"'@	c #1F2935",
")@	c #292E3B",
"!@	c #0E222B",
"~@	c #143341",
"{@	c #143140",
"]@	c #1E3443",
"^@	c #0F1B22",
"/@	c #5E5B79",
"(@	c #49475E",
"_@	c #15303E",
":@	c #394054",
"<@	c #181F28",
"[@	c #46465D",
"}@	c #11242E",
"|@	c #47465D",
"1@	c #1D212B",
"2@	c #474960",
"3@	c #474961",
"4@	c #213B4E",
"5@	c #484E67",
"6@	c #23394A",
"7@	c #173241",
"8@	c #373B4D",
"9@	c #19242E",
"0@	c #0D2029",
"a@	c #2C2F3D",
"b@	c #19232D",
"c@	c #132A36",
"d@	c #12313F",
"e@	c #143646",
"f@	c #143545",
"g@	c #4C4C64",
"h@	c #3B3D50",
"i@	c #262A36",
"j@	c #1F2934",
"k@	c #24394B",
"l@	c #284257",
"m@	c #284256",
"n@	c #2B2F3D",
"o@	c #252935",
"p@	c #3B3C50",
"q@	c #484A62",
"r@	c #4A4F69",
"s@	c #4B526D",
"t@	c #3E4B64",
"u@	c #575570",
"v@	c #3B3C4F",
"w@	c #5D5B79",
"x@	c #4A4F68",
"y@	c #163241",
"z@	c #173343",
"A@	c #1E2934",
"B@	c #1A2631",
"C@	c #213C4F",
"D@	c #10222B",
"E@	c #0E1F27",
"F@	c #122A35",
"G@	c #3D4960",
"H@	c #49506B",
"I@	c #565673",
"J@	c #3C3D50",
"K@	c #262936",
"L@	c #4D536D",
"M@	c #223848",
"N@	c #282A37",
"O@	c #10212A",
"P@	c #33465D",
"Q@	c #1D3545",
"R@	c #163748",
"S@	c #3A475E",
"T@	c #223849",
"U@	c #2F455A",
"V@	c #3B475E",
"W@	c #1E3646",
"X@	c #1F3647",
"Y@	c #12232D",
"        . + + + + @ # $ % & * = = = = = = = = = - ; ; > , @ ' + + ) @ ! ~ { ] ^ / ( ( ( ( ( ( ( ( / ^ _ : < [ = - ; ; > , ' .   ",
"    . } | 1 1 2 3 4 5 6 7 8 8 9 9 9 9 9 9 9 9 0 a b c d e , f 1 1 , ! g h i j k l ( ( ( ( ( ( ( ( l k m n o o p q - ; d r s t   ",
"  . + s u v v w x y z A B _ _ _ _ _ _ _ _ C C D E = b F G H H H H w I h J j K ( ( ( ( ( ( ( ( ( ( ( ( L M _ C N p O b F d P | . ",
"  } s Q R S T U V W X Y Z ^ ^ ^ ^ ^ ^ ^ ^ Z `  .i E ..b c ; ; ; b U V W  .Z k ( ( ( ( ( ( ( ( ( ( ( ( ( k ` ` +.@.b b ; #.v 1 + ",
". | u R $.b * V %.X &.^ k / / / / / / / / k k *. .D E = b ; ; b = V %.=.&.k ( ( ( ( ( ( ( ( ( ( ( ( ( ( l ^ ` -.@.b b ; S v 1 + ",
"+ ;.>.,.; a E i  .Z k ( ( ( ( ( ( ( ( ( ( ( ( k Z  .i E '.= = a ).!. .Z k ( ( ( ( ( ( ( ( ( ( ( ( ( ( ( ( k ^ ~.7 {.].; S v 1 + ",
"+ ;.>.#.b p N  .*.k ( ( ( ( ( ( ( ( ( ( ( ( ( ( k *. .D E < < E ^./.&.k ( ( ( ( ( ( ( ( ( ( ( ( ( ( ( ( ( k Z A (._.:.S <.v 1 + ",
". | u [.}.@.+.` k ( ( ( ( ( ( ( ( ( ( ( ( ( ( ( ( k Z  .|.1.: 2.3.4.K ( ( ( ( ( ( ( ( ( ( ( ( ( ( ( ( ( ( 5.Y 6.7.8.w 9.R P | . ",
"  } s 0.a.@.+.Z k ( ( ( ( ( ( ( ( ( ( ( ( ( ( ( ( ( k K m C C b.c.n M k l ( ( ( ( ( ( ( ( ( ( ( ( ( ( ( ( Z Y 6.d.8.e.R r f.t   ",
"  . @ ! w g.C ^ / ( ( ( ( ( ( ( ( ( ( ( ( ( ( ( ( ( ( ( k ` h._ i.i.j.^ / ( ( ( ( ( ( ( ( ( ( ( ( ( ( ( k &.X k.l.m.[.n.r o.p.. ",
"  . @ ! w g.C ^ / ( ( ( ( ( ( ( ( ( ( ( ( ( ( ( ( ( ( ( l ^ ` _ i.i.j.^ / ( ( ( ( ( ( ( ( ( ( ( ( ( ( k Z  .i q.r.G F s.d P s ' ",
". t.s 0.a.8 C ^ / ( ( ( ( ( ( ( ( ( ( ( ( ( ( ( ( ( ( ( ( l k M u.u.M k l ( ( ( ( ( ( ( ( ( ( ( ( ( k *. .D E = b ; - ; S d r , ",
"' s P [.}.8 C ^ / ( ( ( ( ( ( ( ( ( ( ( ( ( ( ( ( ( ( ( ( ( ( L M M L ( ( ( ( ( ( ( ( ( ( ( ( ( ( k Z  .i E ..O - c - - ; F d > ",
", r d T b 9 C ^ / ( ( ( ( ( ( ( ( ( ( ( ( ( ( ( ( ( ( ( ( ( ( l ^ ^ k l ( ( ( ( ( ( ( ( ( ( ( l k K j v.w.x.= b - c - - - - ; ; ",
"> d F b O 9 C ^ / ( ( ( ( ( ( ( ( ( ( ( ( ( ( ( ( ( ( ( ( ( ( l ^ Z ^ k ( ( ( ( ( ( ( ( ( ( ( k Z  .n y.z.[ = b ; ; - - - - c ; ",
"; ; - O = 8 -.Z k ( ( ( ( ( ( ( ( ( ( ( ( ( ( ( ( ( ( ( ( ( k K m _ _ m K k ( ( ( ( ( ( ( / k A.j B.C.1.o 8 @.D.r.:.F ; - - - - ",
"; c - O = @.-.` k ( ( ( ( ( ( ( ( ( ( ( ( ( ( ( ( ( ( ( ( k Z  .|.1.1.|. .Z k ( ( ( ( ( ( k Y j E.F.B.C C +.G.H.I.J.K.S ; - - - ",
"- - - b L.p %.=.&.k ( ( ( ( ( ( ( ( ( ( ( ( ( ( ( ( ( l k K j v.w.M.M.w.v.j K k k / / k k N.O.P.Q.E.j ` Z R.Y S.T.U.V.K.F c ; ; ",
"- - - - - W.V W  .Z k ( ( ( ( ( ( ( ( ( ( ( ( ( ( ( ( k Z  .n y.X.[ [ X.y.n  .` Z ^ ^ R.Y O.Y.Z.P.j A.k k k k `. +.+U.J.:.; S ; ",
"; c - - b ++@+h J X &.k ( ( ( ( ( ( ( ( ( ( ( ( ( l k K m B.C.1.o #+#+o 1.C.$+%+_ _ &+C *+P.Z.Y.O.Y k ( ( ( ( 5.=+ +T.I.-+;+d > ",
"; ; - - b {.>+,+'+)+X Z k ( ( ( ( ( ( ( ( ( ( ( ( k Z m !+F.B.C C C C C C $+C.~+~+o 9 o 1.{+]+O.N.k / ( ( ( ( k 5.`.S.k.q.{.0., ",
"> K.].^+/+(+_+:+<+'+[+X }+Z 5.k k k k / / / / k k K m |+F.!+m ` Z ^ ^ Z `  .n ~+1.1+..2+y.n X Y k ( ( ( ( ( ( ( ( k h.3+4+y 5+@ ",
", m.{.6+|+7+8+<+:+,+'+)+3+Y Y R.R.Z ^ ^ ^ ^ ^ Z ` m !+F.|+m K k k / / k k 9+M _ %+v.w.w.0+j &.k / ( ( ( ( ( ( ( ( / k a+X z 5 b+",
"@ 5+y 4+c+c+)+'+,+:+d+e+f+6.6.g+g+A ~.C C &+_ _ %+B.F.!+m Z k ( ( ( ( ( ( ( k ` ` C o o C ` k ( ( ( ( ( ( ( ( ( ( ( ( Z Y h+i+j+",
"b+5 z /.}+&./.[+'+d+k+l+m+n+n+o+o+(.7 8 8 9 o ~+~+C.B.m K k l ( ( ( ( ( ( ( l ^ ` &+o o &+Z k ( ( ( ( ( ( ( ( ( ( ( ( 5.Y g+p+q+",
"b+n+6.Y Z k Z X )+r+g 8.8.! ! s+8._.{.& t+..1+1.~+n  .Z k ( ( ( ( ( ( ( ( ( ( / ^ _ : o &+Z k ( ( ( ( ( ( ( ( ( ( ( ( k 5.u+v+w+",
"b+n+h+Y 5.( k &.X [+h ~ x w w w w :.].= [ w.v.C _ M 9+k l ( ( ( ( ( ( ( ( ( ( / ^ _ : o C ` k ( ( ( ( ( ( ( ( ( ( ( ( ( x+y+z+h+",
"b+A+B+R.k ( ( k Z  .W V U ; C+T ; ; - a E i  .` Z k ( ( ( ( ( ( ( ( ( ( ( ( ( / ^ _ o 1+D+=.&.k ( ( ( ( ( ( ( ( ( ( ( ( ( x+5.R.",
"b+A+B+R.k ( ( ( k &.=.%.p b * b c b O p N  .*.k k l ( ( ( ( ( ( ( ( ( ( ( ( ( / ^ &+9 ..1+W  .Z k ( ( ( ( ( ( ( ( ( ( ( ( ( k k ",
"b+n+h+Y 5.( ( ( ( ^ E++.9 ..E p W.F+[ 9 G+E+^ ( ( ( ( ( ( ( ( ( ( ( ( ( l / / ^ ` C 9 H+I+J+J  .&.k k / / l ( ( ( ( ( ( ( ( l / ",
"b+n+6.Y Z ( ( ( ( ^ E+-.1.1+%.^.0 < K+9 +.E+^ ( ( ( ( ( ( ( ( ( ( ( ( ( k ^ ^ ` ` +.8 L+M+N+J+W =.` Z ^ ^ k ( ( ( ( ( ( ( ( k ^ ",
"b+O+z X &.k k k k K m B.C.P+4.Q+!.1.: c.$+m K k l ( ( ( ( ( ( ( ( l k 9+M j._ _ &+R+S+T+U+I.V+1+%.-.-.&+_ m K k ( ( ( ( k K j ] ",
"W+X+y W X ` Z Z ` m !+F.B. .&.K Y+C C $+F.!+m Z k ( ( ( ( ( ( ( ( k Z  .n Z+~+1.~+C.R+`+ @.@+@2+E @.8 o o |. .Z k ( ( k Z j i { ",
"+ 3 x V %.-.-.C C B.F.!+m Z k ( k Z ` m !+F.|+m K k l ( ( ( ( l k K m B.C.~+1.~+Z+n  .@@@@X i 1+2+[ [ x.< w.D  .*.^ ^ &. .J h ~ ",
"+ 2 w U p @.8 o 1.C.B.m K k ( ( l k k K m |+F.!+m Z k ( ( ( ( k Z m !+F.B.%+_ _ j.M 9+^ Z &. .D w.< x.[ [ 2+1+i  .E+E+=.W h g ! ",
"+ 1 H ; b = [ z.y.n  .Z k ( ( ( ( ( ( k Z m !+F.|+m K k k k ^ A.j |+F.!+m ` Z ^ ^ k ( ( ( k Z  .|.o o 8 @.E z.1+%.#@$@%.%@% 3 @ ",
"+ 1 H ; b = x.w.v.j K k l ( ( ( ( ( ( l k K m |+F.!+m ` ^ Z Y j E.F.|+m K k k / / l ( ( ( ( k K m _ &+-.-.D w.2+V &@@.6+*@e.f ) ",
"' f H ; b '.E i  .Z k ( ( ( ( ( ( ( ( ( ( k Z m !+F.B.C ] ~.=@-@;@u.j Z k ( ( ( ( ( ( ( ( ( ( ( k ^ ^ Z `  .i q.-+{.].;+R u | . ",
"@ , H b = E D  .*.k ( ( ( ( ( ( ( ( ( ( ( l k K m B.C.1.>@,@'@)@-@j A.k l ( ( ( ( ( ( ( ( ( ( ( l / / k k &.X H.l.!@a.~@Q s }   ",
", 0.{@W.E i  .Z k ( ( ( ( ( ( ( ( ( ( ( ( ( ( k Z  .n 1.>@]@^@w+6.Y Z ( ( ( ( ( ( ( ( ( ( ( ( ( ( ( ( ( ( Z /@(@d.8.e._@2 @ .   ",
"> {@++E N  .*.k ( ( ( ( ( ( ( ( ( ( ( ( ( ( ( l k 9+M ] *+:@<@w+g+Y 5.( ( ( ( ( ( ( ( ( ( ( ( ( ( ( ( ( ( Z /@(@d.8.e._@2 @ .   ",
"; U E |. .Z k ( ( ( ( ( ( ( ( ( ( ( ( ( ( ( ( ( ( ( k h.Y h+w+w+[@R.k ( ( ( ( ( ( ( ( ( ( ( ( ( ( ( ( / k a+X k.l.m.[.R }@s t.. ",
"b p N  .*.k ( ( ( ( ( ( ( ( ( ( ( ( ( ( ( ( ( ( ( ( l R.Y |@1@1@[@R.k ( ( ( ( ( ( ( ( ( ( ( ( ( ( ( ( k h.X i q.r.G F s.R P s ' ",
"= 8 -.E+^ ( ( ( ( ( ( ( ( ( ( ( ( ( ( ( ( ( ( ( ( ( ( k Z 2@'@'@3@h.k ( ( ( ( ( ( ( ( ( ( ( ( ( ( k 5.`.S.H.4@= b ; - ; S d r , ",
"= 8 -.E+^ ( ( ( ( ( ( ( ( ( ( ( ( ( ( ( ( ( ( ( ( ( ( k ^ 5@6@T+B h.k ( ( ( ( ( ( ( ( ( ( ( ( ( ( 5.=+ +T.I.7@b ; c - - ; F d > ",
"b p N  .K ( ( ( ( ( ( ( ( ( ( ( ( ( ( ( ( ( ( ( ( ( ( / ^ _ { V v. .*.k ( ( ( ( ( ( ( ( ( ( ( k 5.`. +8@9@0@{.; ; c - - - - ; ; ",
"; U E P+m k l ( ( ( ( ( ( ( ( ( ( ( ( ( ( ( ( ( ( ( ( / ^ C 8 '.1+i  .Z k ( ( ( ( ( ( ( ( ( ( 5.=+ +a@b@c@d@e@b ; ; - - - - c ; ",
"> {@f@o C ` ^ l ( ( ( ( ( ( ( ( ( ( ( ( ( ( ( ( ( ( ( / ^ C 9 [ x.E D  .*.k ( ( ( ( ( ( ( k 5.`.g@h@i@j@k@l@m@D.r.:.F ; - - c ; ",
", m.{.8 +.` ` k ( ( ( ( ( ( ( ( ( ( ( ( ( ( ( ( ( ( ( / ^ C 9 = = '.E i  .Z k ( ( ( ( ( ( 5.=+g@n@o@p@q@r@s@s@H.I.J.K.S ; - ; ; ",
"@ , w /+t@-.C j K k ( ( ( ( ( ( ( ( ( ( ( ( ( ( ( ( ( / ^ C 8 * = = x.w.v.Y+9+l / / / k k u@g@v@o@n@g@w@h.R.Y S.T.U.V.K.F F d > ",
"' , H *@6+#+{ i  .Z k ( ( ( ( ( ( ( ( ( ( ( ( ( ( ( ( / ^ C 8 & = = [ X.y.n m ^ ^ ^ ^ R.Y O.Y.o@v@g@`.Z k k k `. +.+U.J.K.d r , ",
"+ 1 v S b f@@+h J X &.k ( ( ( ( ( ( ( ( ( ( ( ( ( ( ( k h.x@T+y@q.@.8 o ~+E.m K m _ _ C *+P.Z.Y.g@=+5.( ( ( ( 5.=+ +T.I.z@e., @ ",
"+ 1 v ,.S :.>+,+'+)+X Z k ( ( ( ( ( ( ( ( ( ( ( ( ( ( Z w@=@A@B@.@G.+._ _ m K m E.~+o o 1.{+]+O.u@5.k ( ( ( ( k 5.`.S.k.C@x 3 ) ",
". | u R 9.G D@E@d+'+[+X &.k k l ( ( ( ( ( ( ( ( l k Z `.g@h@i@a@z+Y R.^ ^ ^ ^ m n y.- - y.n X Y k ( ( ( ( ( ( ( ( k h.3+4+y 4 @ ",
"  } s r d $.n.F@E@,+'+)+X ` Z k ( ( ( ( ( ( ( ( k h.w@g@n@o@h@ +`.k k / / / l 9+Y+0+y.y.0+ .&.k / ( ( ( ( ( ( ( ( / k a+X z 5 # ",
"  . @ , H #.<.d D@E@d+'+G@-.H@M L ( ( ( ( ( ( I@M ~.q@J@K@n@g@=+5.( ( ( ( ( ( k Z Y+n n Y+Z k ( ( ( ( ( ( ( ( ( ( ( ( ^ Y A 6 $ ",
"  . @ , H S S s.d F@E@,+(+8 >@u.M k l ( ( l k L@E.M@j@N@J@g@`.5.k ( ( ( ( ( ( ( k 9+m m 9+k ( ( ( ( ( ( ( ( ( ( ( ( ( k Z B 7 % ",
"  } s r d ; c ; S d D@O@{.'.1+n m k l ( ( l k j P@Q@>+j@ @/@Z ( ( ( ( ( ( ( ( ( ( ( k k k l ( ( ( ( ( ( ( ( ( ( ( ( ( / ^ _ 8 & ",
". | u R R@- - - ; F G :.++E v.Y+9+( ( ( ( ( ( K j S@Q@T@x@@@^ ( ( ( ( ( ( ( ( ( ( ( l k k k ( ( ( ( ( ( ( ( ( ( ( ( ( / ^ _ 8 * ",
"+ ;.>.<.; - - - - - ; b = @.G+E+^ ( ( ( ( ( ( k Z  .i U@b. .K k ( ( ( ( ( ( ( ( ( ( k K j j K k ( ( ( ( ( ( ( ( ( ( ( k Z C 9 = ",
"+ ;.>.<.; - - - - - c b = @.G+E+^ ( ( ( ( ( ( ( k &./.3.C.n j Z k ( ( ( ( ( ( ( ( k Z j P@P@j Z k ( ( ( ( ( ( ( ( ( ( k ` C 9 = ",
". | P d F - - - - - - b L.0 D j 9+( ( ( ( ( ( ( ( K 4.D w.y.0+j 9+( ( ( ( ( ( ( ( K j V@W@W@V@j K ( ( ( ( ( ( ( ( ( ( 9+j v.).= ",
"  t s r d ; c - - - - - - a E P+m k l ( ( ( ( l k Y+i E ....1+P+m k l ( ( ( ( l k j i X@Y@Y@X@i j k l ( ( ( ( ( ( l k m P+E a - ",
"  . ' , > ; ; - - - - - - = [ : _ ^ / ( ( ( ( / ^ _ : [ L.L.[ : _ ^ / ( ( ( ( / ^ ] { ~ 8.8.~ { ] ^ / ( ( ( ( ( ( / ^ _ : [ L.- "};
