/* XPM */
static char * im3_xpm[] = {
"64 64 77 1",
" 	c #FFFFFF",
".	c #D4D4D4",
"+	c #A5A5A5",
"@	c #919191",
"#	c #A4A4A4",
"$	c #AEAEAE",
"%	c #C6C6C6",
"&	c #E1E1E1",
"*	c #3D3D3D",
"=	c #2A2A2A",
"-	c #414141",
";	c #474747",
">	c #636363",
",	c #BCBCBC",
"'	c #898989",
")	c #000000",
"!	c #6C6C6C",
"~	c #F4F4F4",
"{	c #4E4E4E",
"]	c #141414",
"^	c #373737",
"/	c #C2C2C2",
"(	c #CBCBCB",
"_	c #232323",
":	c #1D1D1D",
"<	c #959595",
"[	c #2B2B2B",
"}	c #1F1F1F",
"|	c #2F2F2F",
"1	c #B3B3B3",
"2	c #616161",
"3	c #252525",
"4	c #727272",
"5	c #BDBDBD",
"6	c #838383",
"7	c #787878",
"8	c #9D9D9D",
"9	c #313131",
"0	c #8A8A8A",
"a	c #E9E9E9",
"b	c #6D6D6D",
"c	c #111111",
"d	c #303030",
"e	c #8E8E8E",
"f	c #3B3B3B",
"g	c #D7D7D7",
"h	c #292929",
"i	c #444444",
"j	c #868686",
"k	c #757575",
"l	c #545454",
"m	c #5B5B5B",
"n	c #161616",
"o	c #0D0D0D",
"p	c #060606",
"q	c #222222",
"r	c #7F7F7F",
"s	c #999999",
"t	c #353535",
"u	c #4B4B4B",
"v	c #363636",
"w	c #2E2E2E",
"x	c #494949",
"y	c #7C7C7C",
"z	c #333333",
"A	c #3A3A3A",
"B	c #6F6F6F",
"C	c #A6A6A6",
"D	c #121212",
"E	c #797979",
"F	c #404040",
"G	c #181818",
"H	c #696969",
"I	c #565656",
"J	c #454545",
"K	c #828282",
"L	c #434343",
"                                                                ",
"                                                                ",
"                                                                ",
"                                                                ",
"                                                                ",
"                                                                ",
"                                                                ",
"                     .+@#$$$$$$$$$$$$$$%&                       ",
"                     $*=-;;;;;;;;;;;;;;>,                       ",
"                     $*=-;;;;;;;;;;;;;;;',                      ",
"                     .+@#$$$$$$$$$$$$$$@)',                     ",
"                                       ,!)'~                    ",
"                                       &{]^/                    ",
"                                      ('_):/                    ",
"                                     ~<[}|>(                    ",
"                                     12345&                     ",
"                                    &6)7(                       ",
"                                    8990                        ",
"                                   abcd5                        ",
"                                  (ef:!g                        ",
"                                 ('hh'(                         ",
"                                ~<[ie(                          ",
"                                12hea                           ",
"                           &$jkl-)m'$$%&                        ",
"                           ,;nop)n9;;;>,                        ",
"                           ,;nopoq;;*9*r$$%&                    ",
"                           &$jkkjs$$j-t-;;>,                    ",
"                                    %>;u;v;75%&                 ",
"                                    &,+$$6w{x>,                 ",
"                                         /y3z*r$%&              ",
"                                         ~,rAt-;>,              ",
"                                           %>;u9;'              ",
"                                           &,+$B)7&             ",
"                                               @;;%             ",
"                                               '99C             ",
"                                              ~4Dd5             ",
"                                            &%EFG!g             ",
"                                           ,';|)>(              ",
"                                      ~g5$rH);9;'               ",
"                                     (<2;;9)I@$%&               ",
"                                 &%$rH3[;;9;'                   ",
"                                ,';;9)JK8$$%&                   ",
"                         &%$$$$rH);;9L6~                        ",
"                         ,>;;;;9)I@$$%&                         ",
"                         ,>;;;;9;'                              ",
"                         &%$$$$$%&                              ",
"                                                                ",
"                                                                ",
"                                                                ",
"                                                                ",
"                                                                ",
"                                                                ",
"                                                                ",
"                                                                ",
"                                                                ",
"                                                                ",
"                                                                ",
"                                                                ",
"                                                                ",
"                                                                ",
"                                                                ",
"                                                                ",
"                                                                ",
"                                                                "};
