/* XPM */
static char * im7_xpm[] = {
"64 64 76 1",
" 	c #FFFFFF",
".	c #F4F4F4",
"+	c #E9E9E9",
"@	c #DFDFDF",
"#	c #B9B9B9",
"$	c #8E8E8E",
"%	c #616161",
"&	c #595959",
"*	c #7C7C7C",
"=	c #BCBCBC",
"-	c #E1E1E1",
";	c #C6C6C6",
">	c #AEAEAE",
",	c #999999",
"'	c #898989",
")	c #727272",
"!	c #2B2B2B",
"~	c #252525",
"{	c #1D1D1D",
"]	c #A5A5A5",
"^	c #F9F9F9",
"/	c #B3B3B3",
"(	c #919191",
"_	c #787878",
":	c #474747",
"<	c #313131",
"[	c #222222",
"}	c #757575",
"|	c #7F7F7F",
"1	c #2D2D2D",
"2	c #3C3C3C",
"3	c #9D9D9D",
"4	c #6C6C6C",
"5	c #4D4D4D",
"6	c #000000",
"7	c #454545",
"8	c #9A9A9A",
"9	c #C2C2C2",
"0	c #A6A6A6",
"a	c #BDBDBD",
"b	c #565656",
"c	c #828282",
"d	c #D7D7D7",
"e	c #AAAAAA",
"f	c #3D3D3D",
"g	c #888888",
"h	c #CDCDCD",
"i	c #545454",
"j	c #E7E7E7",
"k	c #6F6F6F",
"l	c #555555",
"m	c #282828",
"n	c #0A0A0A",
"o	c #3A3A3A",
"p	c #636363",
"q	c #CBCBCB",
"r	c #2F2F2F",
"s	c #111111",
"t	c #0B0B0B",
"u	c #050505",
"v	c #1F1F1F",
"w	c #5E5E5E",
"x	c #2E2E2E",
"y	c #5C5C5C",
"z	c #414141",
"A	c #707070",
"B	c #8D8D8D",
"C	c #959595",
"D	c #363636",
"E	c #767676",
"F	c #242424",
"G	c #151515",
"H	c #4E4E4E",
"I	c #202020",
"J	c #525252",
"K	c #8A8A8A",
"                                                                ",
"                                                                ",
"                                                                ",
"                                                                ",
"                                                                ",
"                                                                ",
"                                                                ",
"                                                                ",
"                                                                ",
"                                                                ",
"                                                                ",
"                              .+@@@@@@@@@@@@@@@@+.              ",
"                         .+@@#$%&&&&&&&&&&&&&&&&*=              ",
"                    -;>,')%&&&!!!!!!!!!!!!!!!!~{!]              ",
"               ^-;/(_::<[{!!!!%}||||||||||||||%123              ",
"               ./45:6::<[7}||89.              >::>              ",
"               ./45:_(>,0a.                  -(:b;              ",
"               ^-;/;-                        /b:3-              ",
"                                            .c!%d               ",
"                                            +%!}.               ",
"                                            @&!|                ",
"                                            #&!8                ",
"                                           -$!49                ",
"                                          .]55].                ",
"                                          94!$-                 ",
"                                         .$!%9                  ",
"                                         d%!c.                  ",
"                                         e::e                   ",
"                                        .c!%d                   ",
"                                        d%!c.   ;((=            ",
"                               .+@@@@@@@]ffgh3c}i~6=            ",
"                            j;'kl&&&&&&&mnno&:6!{[p=            ",
"                            q4rs{!!!!!!{t6uv!:p&w(;             ",
"                            q4rxi|||||yz61zAB/d++.              ",
"                            j;0#d     C6p/                      ",
"                                      }!&+                      ",
"                                    -=}D*+                      ",
"                                    ]p5]=.                      ",
"                                   -_6_-                        ",
"                                   /::3                         ",
"                                   B!&h                         ",
"                                  q}!E+                         ",
"                                 /}F4/.                         ",
"                                ._GD].                          ",
"                               -/HI4-                           ",
"                               >JoK9                            ",
"                               (<:;                             ",
"                               ]p'-                             ",
"                               ---                              ",
"                                                                ",
"                                                                ",
"                                                                ",
"                                                                ",
"                                                                ",
"                                                                ",
"                                                                ",
"                                                                ",
"                                                                ",
"                                                                ",
"                                                                ",
"                                                                ",
"                                                                ",
"                                                                ",
"                                                                "};
