/* XPM */
static char * im8_xpm[] = {
"64 64 98 2",
"  	c #FFFFFF",
". 	c #E1E1E1",
"+ 	c #B9B9B9",
"@ 	c #9E9E9E",
"# 	c #C1C1C1",
"$ 	c #A5A5A5",
"% 	c #353535",
"& 	c #171717",
"* 	c #202020",
"= 	c #4B4B4B",
"- 	c #6C6C6C",
"; 	c #707070",
"> 	c #666666",
", 	c #959595",
"' 	c #CBCBCB",
") 	c #121212",
"! 	c #020202",
"~ 	c #474747",
"{ 	c #1B1B1B",
"] 	c #131313",
"^ 	c #C6C6C6",
"/ 	c #0B0B0B",
"( 	c #212121",
"_ 	c #626262",
": 	c #9D9D9D",
"< 	c #787878",
"[ 	c #555555",
"} 	c #2F2F2F",
"| 	c #0A0A0A",
"1 	c #181818",
"2 	c #BCBCBC",
"3 	c #6F6F6F",
"4 	c #252525",
"5 	c #4E4E4E",
"6 	c #DFDFDF",
"7 	c #F4F4F4",
"8 	c #E9E9E9",
"9 	c #969696",
"0 	c #000000",
"a 	c #898989",
"b 	c #7F7F7F",
"c 	c #C4C4C4",
"d 	c #D7D7D7",
"e 	c #8F8F8F",
"f 	c #2B2B2B",
"g 	c #A1A1A1",
"h 	c #303030",
"i 	c #878787",
"j 	c #B1B1B1",
"k 	c #3F3F3F",
"l 	c #1D1D1D",
"m 	c #797979",
"n 	c #292929",
"o 	c #818181",
"p 	c #9A9A9A",
"q 	c #5E5E5E",
"r 	c #5A5A5A",
"s 	c #C2C2C2",
"t 	c #434343",
"u 	c #3D3D3D",
"v 	c #646464",
"w 	c #727272",
"x 	c #636363",
"y 	c #282828",
"z 	c #191919",
"A 	c #828282",
"B 	c #262626",
"C 	c #838383",
"D 	c #090909",
"E 	c #0F0F0F",
"F 	c #7C7C7C",
"G 	c #3A3A3A",
"H 	c #404040",
"I 	c #4D4D4D",
"J 	c #565656",
"K 	c #8E8E8E",
"L 	c #363636",
"M 	c #AAAAAA",
"N 	c #2A2A2A",
"O 	c #696969",
"P 	c #919191",
"Q 	c #545454",
"R 	c #313131",
"S 	c #AEAEAE",
"T 	c #3C3C3C",
"U 	c #595959",
"V 	c #CDCDCD",
"W 	c #757575",
"X 	c #8D8D8D",
"Y 	c #373737",
"Z 	c #A3A3A3",
"` 	c #2C2C2C",
" .	c #080808",
"..	c #5F5F5F",
"+.	c #999999",
"@.	c #494949",
"#.	c #222222",
"$.	c #B3B3B3",
"                                                                                                                                ",
"                                                                                                                                ",
"                                                                                                                                ",
"                                                                                                                                ",
"                                                                                                                                ",
"                                                                                                                                ",
"                                                                                                                                ",
"                                                                                                                                ",
"                                                                                                                                ",
"                                                                                                                                ",
"                                                                                                                                ",
"                                                                                                                                ",
"                                                                                                                                ",
"                                                                                                                                ",
"                                                                                                                                ",
"                                                      . + @ @ # .                                                               ",
"                                                      $ % & * = - ; > , '                                                       ",
"                                                      - ) ! & = ~ { ] { > ^                                                     ",
"                                                      > / ( _ : < [ } | 1 < 2                                                   ",
"                                                      3 4 5 6   7 8 9 [ } 0 a '                                                 ",
"                                                      b 4 5 c       7 d e 5 f g                                                 ",
"                                                      g f h i '         j k l m                                                 ",
"                                                      ' a ~ n a 2       o 1 1 p                                                 ",
"                                                        . $ q 0 a .   . r 0 ~ s                                                 ",
"                                                          7 : t ~ $ . $ u f a                                                   ",
"                                                            . < 0 v w t t , '                                                   ",
"                                                              $ x y z ) m .                                                     ",
"                                                              . A B 0 ] C                                                       ",
"                                                              7 A | D E F .                                                     ",
"                                                              d [ { G H I $ 7                                                   ",
"                                                            . : ~ J : K f - s                                                   ",
"                                                            $ J ~ $ . s F L M .                                                 ",
"                                                          2 < 0 a .   7 $ x I $                                                 ",
"                                                        . a 0 < 2       . I N O d                                               ",
"                                                      . $ ~ J $         . A { } C 7                                             ",
"                                                      ^ J ~ P .           ' Q ) [ 8                                             ",
"                                                    7 b R L S               3 4 5 6                                             ",
"                                                    8 q ) T ^               b f U 6                                             ",
"                                                    V 5 l > .               b f U 6                                             ",
"                                                    M ~ ~ M               . W f - 8                                             ",
"                                                    X f U V             7 $ I I $ 7                                             ",
"                                                    i 1 Y e         7 d Z q f K .                                               ",
"                                                    M `  ...S S +.b O U @.f F s                                                 ",
"                                                    d x R } ~ ~ R #.0 f I a 2 7                                                 ",
"                                                      . $ J ~ ~ R #.I A $..                                                     ",
"                                                        . ^ S S +.S ^                                                           ",
"                                                                                                                                ",
"                                                                                                                                ",
"                                                                                                                                ",
"                                                                                                                                ",
"                                                                                                                                ",
"                                                                                                                                ",
"                                                                                                                                ",
"                                                                                                                                ",
"                                                                                                                                ",
"                                                                                                                                ",
"                                                                                                                                ",
"                                                                                                                                ",
"                                                                                                                                ",
"                                                                                                                                ",
"                                                                                                                                ",
"                                                                                                                                ",
"                                                                                                                                ",
"                                                                                                                                "};
