/* XPM */
static char * exitopen32_xpm[] = {
"32 32 3 1",
" 	c #0C1317",
".	c #E17B50",
"+	c #A84111",
"             ......             ",
"          ............          ",
"        ................        ",
"       .....++++++++.....       ",
"      ....++++++++++++....      ",
"     ...++++++++++++++++...     ",
"    ...++++++      ++++++...    ",
"   ...+++++          +++++...   ",
"   ..+++++            +++++..   ",
"  ..+++++              +++++..  ",
"  .+++++                +++++.  ",
"  .++++                  ++++.  ",
" .++++                    ++++. ",
" .++++                    ++++. ",
" .+++                      +++. ",
" .+++                      +++. ",
" .+++                      +++. ",
" ++++                      ++++ ",
" ++++                      ++++ ",
" ++++                      ++++ ",
" ++++                      ++++ ",
" ++++                      ++++ ",
" ++++                      ++++ ",
" ++++                      ++++ ",
" ++++                      ++++ ",
" ++++                      ++++ ",
" ++++                      ++++ ",
" ++++                      ++++ ",
" ++++                      ++++ ",
" ++++                      ++++ ",
" ++++                      ++++ ",
" ++++                      ++++ "};
