/* XPM */
static char * im5_xpm[] = {
"64 64 66 1",
" 	c #FFFFFF",
".	c #F4F4F4",
"+	c #E9E9E9",
"@	c #E1E1E1",
"#	c #C6C6C6",
"$	c #919191",
"%	c #787878",
"&	c #595959",
"*	c #7C7C7C",
"=	c #BCBCBC",
"-	c #D8D8D8",
";	c #9D9D9D",
">	c #797979",
",	c #747474",
"'	c #7F7F7F",
")	c #757575",
"!	c #4D4D4D",
"~	c #474747",
"{	c #000000",
"]	c #2B2B2B",
"^	c #3E3E3E",
"/	c #CBCBCB",
"(	c #404040",
"_	c #0E0E0E",
":	c #101010",
"<	c #1F1F1F",
"[	c #6C6C6C",
"}	c #A1A1A1",
"|	c #454545",
"1	c #0C0C0C",
"2	c #0B0B0B",
"3	c #434343",
"4	c #EAEAEA",
"5	c #626262",
"6	c #484848",
"7	c #B1B1B1",
"8	c #DFDFDF",
"9	c #363636",
"0	c #B3B3B3",
"a	c #D7D7D7",
"b	c #838383",
"c	c #AEAEAE",
"d	c #565656",
"e	c #313131",
"f	c #5E5E5E",
"g	c #8E8E8E",
"h	c #C2C2C2",
"i	c #A5A5A5",
"j	c #898989",
"k	c #676767",
"l	c #B9B9B9",
"m	c #707070",
"n	c #303030",
"o	c #959595",
"p	c #3D3D3D",
"q	c #828282",
"r	c #AAAAAA",
"s	c #BDBDBD",
"t	c #8D8D8D",
"u	c #2F2F2F",
"v	c #999999",
"w	c #696969",
"x	c #222222",
"y	c #636363",
"z	c #4E4E4E",
"A	c #CDCDCD",
"                                                                ",
"                                                                ",
"                                                                ",
"                                                                ",
"                                                                ",
"                                                                ",
"                                                                ",
"                                                                ",
"                                                                ",
"                                  .++.                          ",
"                               @#$%&*=                          ",
"                      -;>,*'''')!~{]^=                          ",
"                      /(_:<]]]]]~~[)}/                          ",
"                      /|123&&&&[$#@                             ",
"                      45{678888+.                               ",
"                      +&])                                      ",
"                      8&]'                                      ",
"                      8&]'                                      ",
"                      8&]'                                      ",
"                      8&]'                                      ",
"                      +*9)0a.                                   ",
"                      .=$!~b= @#ccc#@                           ",
"                        #de<f))!~~~!gh.                         ",
"                        @i!3{]]~~~~~]*=                         ",
"                         @=j%&[$ccc$k]j/                        ",
"                            .++.   .lmno@                       ",
"                                    .$~!#                       ",
"                                     #~p'@                      ",
"                                     @j{d=                      ",
"                                      =j!j=.                    ",
"                                       @09*0                    ",
"                                        /b{b/                   ",
"                                         0[]o@                  ",
"                                         .i!!i.                 ",
"                                          @q][a                 ",
"                                           0!~;.                ",
"                                           @g][h                ",
"                                            r&]r                ",
"                                            s~~;                ",
"                                       .art'fupc                ",
"                            @#cccccccv'w&~]]<x~#                ",
"                          @@iy~~~~~~~ex{]~&&z~j@                ",
"                          0yy!~~~~~~~ex!qrA8Aa@                 ",
"                          0&9;cccccccvc#                        ",
"                          aii/                                  ",
"                                                                ",
"                                                                ",
"                                                                ",
"                                                                ",
"                                                                ",
"                                                                ",
"                                                                ",
"                                                                ",
"                                                                ",
"                                                                ",
"                                                                ",
"                                                                ",
"                                                                ",
"                                                                ",
"                                                                ",
"                                                                ",
"                                                                ",
"                                                                ",
"                                                                "};
