/* XPM */
static char * solxpm_xpm[] = {
"64 64 32 1",
" 	c #0C1317",
".	c #0C1316",
"+	c #0C1216",
"@	c #0D161A",
"#	c #0E1B21",
"$	c #0E1A21",
"%	c #0D151A",
"&	c #132A36",
"*	c #0E1A20",
"=	c #0C1215",
"-	c #132D39",
";	c #10222B",
">	c #0E1920",
",	c #132C39",
"'	c #122935",
")	c #0C1115",
"!	c #0F1C24",
"~	c #153240",
"{	c #0F1D24",
"]	c #132C38",
"^	c #0C1419",
"/	c #0E191F",
"(	c #0B1114",
"_	c #0C1418",
":	c #0F1C23",
"<	c #15313F",
"[	c #153140",
"}	c #132A35",
"|	c #122934",
"1	c #14303E",
"2	c #0F1D25",
"3	c #675353",
"                                                                ",
"                                                                ",
"                                                                ",
"                                                                ",
"                                                                ",
"                                                                ",
"                                                                ",
"                                                                ",
"                                                                ",
"                                                                ",
"                                                                ",
"                                                                ",
"                                                                ",
"                                                                ",
"                                                                ",
"                                                                ",
"                                                                ",
"                                                                ",
"                                                                ",
"                                                                ",
"                                                                ",
"                                                                ",
"                                                                ",
"                                                                ",
"                                                                ",
"                                                                ",
"                                                                ",
"                  ..                                            ",
"                  ++                                            ",
"                 @#$%+        ..                                ",
"               .+#&&*=+       ++                                ",
"               .+$&-;>%     +%$#@                               ",
"                 %*;,'$+.  +=*&&#+.                             ",
"                 +)!~~{=+  %>;-&$+.                             ",
"                 +={~~!)+.+$',;*%                               ",
"                 ++*'];*%+={~~!)+   ..                          ",
"                  +^/;]'$=(!~~{=+   ++                          ",
"                 %$>_:<[{_/;]'$+. +%$#@                         ",
"               .+$}|/:<<:>|];>%  +=*&&#+.                       ",
"               ++{[<::11::<[:)+  %>;-&$+.                       ",
"               ++{<<::11::<<!=+.+$',;*%                         ",
"               ++{<<::11::<<{++++2~~!)+                         ",
"               ++{[<::11::<[{++++2~~{=+                         ",
"               .+$}|>:<<:>|}$+..+$}}$+.                         ",
"                 %$*^{[[{^*$%    %$$%                           ",
"                  +=+$}}$+=+      ++                            ",
"                  .+ %$$% +.      ..                            ",
"                      ++                                        ",
"                      ..                                        ",
"                                                                ",
"                                                                ",
"                                                                ",
"                                                                ",
"                                                                ",
"                                                                ",
"                                                                ",
"                                                                ",
"                                                                ",
"                                                                ",
"                                                                ",
"                                                                ",
"                                                                ",
"                                                                ",
"                                                                "};
