/* XPM */
static char * char32_xpm[] = {
"32 32 14 1",
" 	c #0C1317",
".	c #B598B2",
"+	c #472138",
"@	c #DEF9FC",
"#	c #874A00",
"$	c #000000",
"%	c #CDD1EC",
"&	c #FF4D00",
"*	c #696A6A",
"=	c #31314B",
"-	c #D3D9B2",
";	c #812611",
">	c #17394A",
",	c #6F5756",
"                                ",
"          .         .           ",
"          .         .           ",
"          ..++++++ ..           ",
"          ...@@@.....           ",
"          +..@@@....+++         ",
"           ++####+++++          ",
"          +++$#$$+#++           ",
"           ++######+++          ",
"         @   #####+  @          ",
"       % @@@@+####+@@@ @        ",
"        @@@@@@++##@@@@@         ",
"       @@@@@@@@....@@@@@&&      ",
"        *@@@@@@@....@@  ##      ",
"       ******@@@..... ==###     ",
"       **** .........==####     ",
"      ----- ;.......===###      ",
"      ----> ;;;;;;;;=== &&      ",
"      ---  ..;;;;;;;.  &&@&     ",
"      --->...........  &@@&     ",
"      ###>........... & @@ &    ",
"      ## >...*.....*.   @@      ",
"       #  *****...**    @@      ",
"          ***** ****    @@      ",
"          ***** -----   @@      ",
"         -----  ,,,,    @@      ",
"          ....  ,,,     @@      ",
"          ....  ,,,     @@      ",
"          ...   ,,,     @@      ",
"          ...   ,,,,    @       ",
"          ...           @       ",
"                                "};
